<?xml version="1.0" encoding="utf-8"?>
<!-- Generator: Adobe Illustrator 28.2.0, SVG Export Plug-In . SVG Version: 6.00 Build 0)  -->
<svg version="1.1" id="Layer_1" xmlns="http://www.w3.org/2000/svg" xmlns:xlink="http://www.w3.org/1999/xlink" x="0px" y="0px"
	 viewBox="0 0 16 16" style="enable-background:new 0 0 16 16;" xml:space="preserve">
<style type="text/css">
	.st0{fill:#FFFFFF;}
</style>
<path class="st0" d="M0,8c0-4.4,3.6-8,8-8s8,3.6,8,8s-3.6,8-8,8S0,12.4,0,8 M7.5,1.1C6.8,1.3,6.2,1.9,5.6,2.9
	C5.5,3.2,5.3,3.5,5.2,3.8C5.9,4,6.7,4.1,7.5,4.1V1.1z M4.2,3.5c0.1-0.4,0.3-0.7,0.5-1.1c0.2-0.3,0.4-0.6,0.6-0.9
	C4.5,1.9,3.7,2.4,3.1,3C3.4,3.2,3.8,3.4,4.2,3.5L4.2,3.5z M3.5,7.5c0-1.1,0.2-2.1,0.4-3C3.4,4.3,2.9,4.1,2.4,3.8
	C1.6,4.9,1.1,6.2,1,7.5H3.5z M4.9,4.8C4.7,5.7,4.5,6.6,4.5,7.5h3V5.1C6.6,5.1,5.7,4.9,4.9,4.8 M8.5,5.1v2.4h3c0-0.9-0.2-1.8-0.4-2.7
	C10.3,4.9,9.4,5.1,8.5,5.1L8.5,5.1z M4.5,8.5c0,1,0.2,1.9,0.4,2.7c0.9-0.2,1.7-0.3,2.6-0.3V8.5H4.5z M8.5,8.5v2.4
	c0.9,0,1.8,0.1,2.6,0.3c0.2-0.8,0.4-1.8,0.4-2.7H8.5z M5.2,12.2c0.1,0.3,0.3,0.6,0.4,0.9c0.6,1,1.2,1.6,1.9,1.9v-3
	C6.7,11.9,5.9,12,5.2,12.2L5.2,12.2z M5.3,14.5c-0.2-0.3-0.4-0.6-0.6-0.9c-0.2-0.3-0.3-0.7-0.5-1.1c-0.4,0.1-0.8,0.3-1.2,0.5
	C3.7,13.6,4.5,14.1,5.3,14.5L5.3,14.5z M3.9,11.5c-0.3-1-0.4-2-0.4-3H1c0.1,1.3,0.6,2.6,1.4,3.7C2.8,11.9,3.4,11.7,3.9,11.5
	 M10.7,14.5c0.9-0.4,1.6-0.9,2.3-1.5c-0.4-0.2-0.8-0.4-1.2-0.5c-0.1,0.4-0.3,0.7-0.5,1.1C11.1,13.9,10.9,14.2,10.7,14.5 M8.5,11.9v3
	c0.7-0.2,1.3-0.8,1.9-1.9c0.1-0.3,0.3-0.6,0.4-0.9C10,12,9.3,11.9,8.5,11.9L8.5,11.9z M12.1,11.5c0.6,0.2,1.1,0.4,1.6,0.7
	c0.8-1.1,1.3-2.3,1.4-3.7h-2.5C12.5,9.5,12.3,10.5,12.1,11.5 M15,7.5c-0.1-1.3-0.6-2.6-1.4-3.7c-0.5,0.3-1,0.5-1.6,0.7
	c0.2,0.9,0.4,1.9,0.4,3H15z M11.3,2.5c0.2,0.3,0.3,0.7,0.5,1.1c0.4-0.1,0.8-0.3,1.2-0.5c-0.7-0.7-1.4-1.2-2.3-1.5
	C10.9,1.8,11.1,2.1,11.3,2.5 M10.8,3.8c-0.1-0.3-0.2-0.6-0.4-0.9c-0.6-1-1.2-1.6-1.9-1.9v3C9.3,4.1,10.1,4,10.8,3.8L10.8,3.8z"/>
</svg>
