<?xml version="1.0" encoding="utf-8"?>
<!-- Generator: Adobe Illustrator 28.2.0, SVG Export Plug-In . SVG Version: 6.00 Build 0)  -->
<svg version="1.1" id="Layer_1" xmlns="http://www.w3.org/2000/svg" xmlns:xlink="http://www.w3.org/1999/xlink" x="0px" y="0px"
	 viewBox="0 0 458.8 39.8" style="enable-background:new 0 0 458.8 39.8;" xml:space="preserve">
<style type="text/css">
	.st0{fill:#1E1E1C;}
</style>
<g id="MAIN_TEXT_00000034804558015613299620000012169257319630538631_">
	<path class="st0" d="M35,28.6c-1.6,3.7-5.5,9.8-14.2,9.8C11.4,38.4,6,31.8,6,20.1C6,8.9,11.3,1.7,19.4,1.7C29.4,1.7,32,9.9,33.1,17
		l0,0.2l0.9-0.1l0-0.2c-0.6-6.6-0.5-11.3,0.2-15.6l0-0.2l-0.9-0.1l0,0.2c-0.3,1.2-0.9,2.6-1.8,2.6c-0.4,0-1-0.3-1.8-0.7
		c-1.8-0.9-4.8-2.3-9.6-2.3c-9.9,0-20,6.8-20,19.9c0,11.5,7.8,19.5,19,19.5c7.8,0,13.5-3.9,16.6-11.2l0.1-0.2l-0.7-0.4L35,28.6z"/>
	<path class="st0" d="M69.5,1.6h-2.1c-1.1,0-3.9,0-5.8-0.1l-0.2,0v0.9l0.2,0c3.3,0.2,4.2,1,4.2,8.6v6.7c0,1.3-0.7,2-2,2H51.1
		c-1.3,0-2-0.7-2-2V11c0-7.6,0.8-8.5,4.1-8.6l0.2,0V1.5l-0.2,0c-1.9,0.1-4.6,0.1-5.8,0.1h-2.1c-1.1,0-4.2,0-6.3-0.1l-0.2,0v0.9
		l0.2,0c3.7,0.2,4.5,1,4.5,8.6v19.3c0,7.6-0.9,8.5-4.5,8.6l-0.2,0v0.9l0.2,0c2.1-0.1,5.1-0.1,6.3-0.1h2.1c1.2,0,3.9,0,5.8,0.1l0.2,0
		v-0.9l-0.2,0c-3.3-0.2-4.1-1-4.1-8.6v-7.7c0-1.3,0.7-1.9,2-1.9h12.6c1.4,0,2,0.6,2,1.9v7.7c0,7.6-0.8,8.5-4.2,8.6l-0.2,0v0.9l0.2,0
		c1.9-0.1,4.7-0.1,5.8-0.1h2.1c1.1,0,4.2,0,6.3,0.1l0.2,0v-0.9l-0.2,0c-3.7-0.2-4.5-1-4.5-8.6V11c0-7.6,0.9-8.5,4.5-8.6l0.2,0V1.5
		l-0.2,0C73.7,1.6,70.7,1.6,69.5,1.6"/>
	<path class="st0" d="M90.3,16.6l2.3-7.5l2.1,7.5c0.1,0.4,0.1,0.8-0.1,1c-0.2,0.2-0.5,0.4-0.9,0.4h-2.3c-0.4,0-0.7-0.1-0.9-0.4
		C90.2,17.3,90.2,17,90.3,16.6 M105.8,34.6L95.2,0.2l0-0.2h-0.7l-6.9,22.5c-4.5,14.9-7.1,16.3-9.7,16.4l-0.2,0v0.9l0.2,0
		c3.9-0.1,6.8-0.1,10.8,0l0.2,0v-0.9l-0.2,0c-1.2,0-2.1-0.1-2.6-0.9c-1.1-1.6-0.4-6,2.3-14.7l1-3.4c0.2-0.7,0.7-1,1.4-1h3.5
		c0.8,0,1.2,0.4,1.4,1.1l4.3,14.8c0.4,1.4,0.4,2.4,0,3.1c-0.6,0.8-1.8,1-3.5,1.1l-0.2,0v0.9l0.2,0c4.8-0.2,10.2-0.2,15,0l0.2,0v-0.9
		l-0.2,0C108.2,38.8,106.7,37.6,105.8,34.6"/>
	<path class="st0" d="M138.9,1.4c-5.3,0.2-9.4,0.2-14.7,0.2s-9.4,0-14.7-0.2l-0.2,0L108.6,14h0.9l0-0.2c1.3-10.2,3.8-11.3,8.7-11.3
		c2.3,0,3.3,0.9,3.3,2.9v24.9c0,7.6-0.9,8.5-4.5,8.6l-0.2,0v0.9l0.2,0c2.1-0.1,5.1-0.1,6.3-0.1h2c1.1,0,4.2,0,6.3,0.1l0.2,0v-0.9
		l-0.2,0c-3.7-0.2-4.5-1-4.5-8.6V5.4c0-2.1,0.9-2.9,3.3-2.9c4.5,0,7.3,0.7,8.7,10.2l0,0.2h0.9l-0.7-11.4L138.9,1.4z"/>
	<path class="st0" d="M170.2,27.2c-0.5,8.5-3.9,11.4-13.6,11.4c-3.7,0-3.7-0.1-3.7-2.7V23c0-2.8,0.3-2.8,3.4-2.8
		c6.1,0,8.6,2.2,8.9,8l0,0.2h0.9V10.9h-0.9l0,0.2c-0.4,5.7-3,8.1-8.9,8.1c-3.2,0-3.4-0.2-3.4-2.8V5.4c0-2.3,0.4-2.8,4.5-2.8
		c8.9,0,11.9,2.4,12.3,9.9l0,0.2h0.9V1.6h-21.4c-1.1,0-4.2,0-6.3-0.1l-0.2,0v0.9l0.2,0c3.7,0.2,4.5,1,4.5,8.6v19.3
		c0,7.6-0.9,8.5-4.5,8.6l-0.2,0v0.9l0.2,0c2.1-0.1,5.1-0.1,6.3-0.1c11.6,0,16.4,0,21.7,0.1l0.2,0V27h-0.9L170.2,27.2z"/>
	<path class="st0" d="M187,16.6l2.3-7.5l2.1,7.5c0.1,0.4,0.1,0.8-0.1,1c-0.2,0.2-0.5,0.4-0.9,0.4H188c-0.4,0-0.7-0.1-0.9-0.4
		C186.9,17.3,186.9,17,187,16.6 M202.5,34.6L191.9,0.2l0-0.2h-0.7l-6.9,22.5c-4.5,14.9-7.1,16.3-9.7,16.4l-0.2,0v0.9l0.2,0
		c3.9-0.1,6.8-0.1,10.8,0l0.2,0v-0.9l-0.2,0c-1.2,0-2.1-0.1-2.6-0.9c-1.1-1.6-0.4-6,2.3-14.7l1-3.4c0.2-0.7,0.7-1,1.4-1h3.5
		c0.8,0,1.2,0.4,1.4,1.1l4.3,14.8c0.4,1.4,0.4,2.4,0,3.1c-0.6,0.8-1.8,1-3.5,1.1l-0.2,0v0.9l0.2,0c4.8-0.2,10.2-0.2,15,0l0.2,0v-0.9
		l-0.2,0C204.9,38.8,203.4,37.6,202.5,34.6"/>
	<path class="st0" d="M231.7,1.6l-0.2,0v0.9h0.2c5.8,0,6.8,3.2,6.8,21.1c0,12.6-7.1,14.5-11.3,14.5c-9,0-10-8.7-10-15.2V11
		c0-7.6,0.9-8.5,4.5-8.6l0.2,0V1.5l-0.2,0c-2.1,0.1-5.1,0.1-6.3,0.1h-2c-1.1,0-4.2,0-6.3-0.1l-0.2,0v0.9l0.2,0
		c3.7,0.2,4.5,1,4.5,8.6v14.4c0,12.9,8.2,14.8,13.1,14.8c4.5,0,14.8-1.6,14.8-16.1c0-17.2,0.2-21.6,5.1-21.6h0.2V1.6l-0.2,0
		C238.5,1.7,237.7,1.7,231.7,1.6"/>
	<path class="st0" d="M266.1,20.7c0-11.4,5.9-19.1,14.7-19.1c8.8,0,14.7,7.5,14.7,18.6c0,11.4-5.9,19.1-14.8,19.1
		C272,39.3,266.1,31.8,266.1,20.7 M280.5,0.8c-12.3,0-20.3,7.7-20.3,19.7c0,11.8,8.4,19.7,20.8,19.7c12.1,0,20.3-7.9,20.3-19.7
		C301.3,8.7,293,0.8,280.5,0.8"/>
	<path class="st0" d="M315.2,4.4c0-0.4,0-0.8,0.3-1.1c0.5-0.5,1.9-0.8,4.1-0.8c7.1,0,10.5,2.6,10.5,7.9c0,1.5-0.4,9.3-8.8,9.3h-4.1
		c-1.3,0-2-0.7-2-2v-13V4.4z M334.7,35L327.3,20c5.4-1.5,8.6-5.2,8.6-9.8c0-5.7-4.6-8.6-13.7-8.6h-10.8c-1.1,0-4.2,0-6.3-0.1l-0.2,0
		v0.9l0.2,0c3.7,0.2,4.5,1,4.5,8.6v19.3c0,7.6-0.9,8.5-4.5,8.6l-0.2,0v0.9l0.2,0c2.1-0.1,5.1-0.1,6.3-0.1h2c1.1,0,4.2,0,6.3,0.1
		l0.2,0v-0.9l-0.2,0c-3.7-0.2-4.5-1-4.5-8.6v-7.6c0-1.3,0.7-2,2-2h4.3l7.1,14.8c0.6,1.2,0.9,2.1,0.6,2.5c-0.4,0.6-1.7,0.8-4.2,0.9
		l-0.2,0v0.9l0.2,0c4-0.1,12.6-0.1,15.4,0l0.2,0v-0.9l-0.2,0C337.9,38.7,336.1,38.1,334.7,35"/>
	<path class="st0" d="M368.9,26.1c-0.8,10.3-3.5,12.7-14.3,12.7c-1.9,0-2.4-0.3-2.4-2.7V11c0-7.6,0.9-8.5,4.5-8.6l0.2,0V1.5l-0.2,0
		c-2.1,0.1-5.1,0.1-6.3,0.1h-2c-1.1,0-4.2,0-6.3-0.1l-0.2,0v0.9l0.2,0c3.7,0.2,4.5,1,4.5,8.6v19.3c0,7.6-0.9,8.5-4.5,8.6l-0.2,0v0.9
		l0.2,0c2.1-0.1,5.1-0.1,6.3-0.1c7,0,14.1,0.1,21.2,0.2l0.2,0v-14h-0.9L368.9,26.1z"/>
	<path class="st0" d="M381.5,1.7h-2c-1.1,0-4.2,0-6.3-0.1l-0.2,0v0.9l0.2,0c3.7,0.2,4.5,1,4.5,8.6v19.3c0,7.6-0.9,8.5-4.5,8.6
		l-0.2,0v0.9l0.2,0c2.1-0.1,5.1-0.1,6.3-0.1h2c1.1,0,4.2,0,6.3,0.1l0.2,0v-0.9l-0.2,0c-3.7-0.2-4.5-1-4.5-8.6V11
		c0-7.6,0.9-8.5,4.5-8.6l0.2,0V1.6l-0.2,0C385.7,1.7,382.6,1.7,381.5,1.7"/>
	<path class="st0" d="M426.6,28.6c-1.6,3.7-5.5,9.8-14.2,9.8c-9.4,0-14.8-6.7-14.8-18.3c0-11.2,5.3-18.5,13.5-18.5
		c9.9,0,12.5,8.2,13.7,15.3l0,0.2l0.9-0.1l0-0.2c-0.6-6.6-0.5-11.3,0.2-15.6l0-0.2l-0.9-0.1l0,0.2c-0.3,1.2-0.9,2.6-1.8,2.6
		c-0.4,0-1-0.3-1.8-0.7c-1.8-0.9-4.8-2.3-9.6-2.3c-9.9,0-20,6.8-20,19.9c0,11.5,7.8,19.5,19,19.5c7.8,0,13.5-3.9,16.6-11.2l0.1-0.2
		l-0.7-0.4L426.6,28.6z"/>
	<path class="st0" d="M458,27l0,0.2c-0.5,8.5-3.9,11.4-13.6,11.4c-3.7,0-3.7-0.1-3.7-2.7V23c0-2.8,0.3-2.8,3.4-2.8
		c6.1,0,8.6,2.2,8.9,8l0,0.2h0.9V10.9H453l0,0.2c-0.4,5.7-3,8.1-8.9,8.1c-3.2,0-3.4-0.2-3.4-2.8V5.4c0-2.3,0.4-2.8,4.5-2.8
		c8.9,0,11.9,2.4,12.3,9.9l0,0.2h0.9V1.6h-21.4c-1.1,0-4.2,0-6.3-0.1l-0.2,0v0.9l0.2,0c3.7,0.2,4.5,1,4.5,8.6v19.3
		c0,7.6-0.9,8.5-4.5,8.6l-0.2,0v0.9l0.2,0c2.1-0.1,5.1-0.1,6.3-0.1c11.6,0,16.4,0,21.7,0.1l0.2,0V27H458z"/>
</g>
</svg>
