<svg width="366" height="56" viewBox="0 0 366 56" fill="none" xmlns="http://www.w3.org/2000/svg">
<g clip-path="url(#clip0_7_509)">
<path d="M27.9084 22.838C26.6569 25.7788 23.5281 30.6592 16.5823 30.6592C9.07335 30.6592 4.75568 25.3408 4.75568 16.0804C4.75568 7.13296 8.94819 1.37654 15.5185 1.37654C23.403 1.37654 25.4679 7.8838 26.4066 13.5777V13.7654L27.0949 13.7028V13.5151C26.6569 8.25922 26.6569 4.5676 27.22 1.06369V0.875977L26.5317 0.813408L26.4691 0.938547C26.2188 1.87709 25.7182 3.06592 25.0299 3.06592C24.717 3.06592 24.2164 2.81564 23.5907 2.50279C22.1515 1.81452 19.7736 0.625698 15.894 0.625698C8.00957 0.625698 0 6.06927 0 16.5184C0 25.6536 6.25748 32.0358 15.1431 32.0358C21.338 32.0358 25.906 28.9698 28.409 23.0883L28.4715 22.9631L27.9709 22.6503L27.9084 22.838Z" fill="#F0ECE1"/>
<path d="M55.4413 1.31397H53.7518C52.9383 1.31397 50.6856 1.31397 49.1212 1.2514H48.9335V1.8771H49.1212C51.7494 2.00224 52.4377 2.6905 52.4377 8.75978V14.0782C52.4377 15.1419 51.8745 15.705 50.8108 15.705H40.7988C39.735 15.705 39.1718 15.1419 39.1718 14.0782V8.75978C39.1718 2.6905 39.8602 2.00224 42.4883 1.8771H42.676V1.18883H42.4883C40.9239 1.2514 38.7964 1.2514 37.8578 1.2514H36.1683C35.2296 1.2514 32.8518 1.2514 31.1623 1.18883H30.9745V1.8771H31.1623C34.1033 2.00224 34.7916 2.62793 34.7916 8.75978V24.152C34.7916 30.2212 34.1033 30.9095 31.1623 31.0346H30.9745V31.7229H31.1623C32.8518 31.6603 35.2922 31.6603 36.1683 31.6603H37.8578C38.7964 31.6603 40.9239 31.6603 42.4883 31.7229H42.676V31.0346H42.4883C39.8602 30.9095 39.1718 30.2212 39.1718 24.152V18.0201C39.1718 16.9564 39.735 16.4559 40.7988 16.4559H50.8733C51.9371 16.4559 52.5003 16.9564 52.5003 18.0201V24.152C52.5003 30.2212 51.812 30.9095 49.1838 31.0346H48.9961V31.7229H49.1838C50.7482 31.6603 52.9383 31.6603 53.8144 31.6603H55.5039C56.4425 31.6603 58.8203 31.6603 60.5099 31.7229H60.6976V31.0346H60.5099C57.5688 30.9095 56.8805 30.2838 56.8805 24.152V8.75978C56.8805 2.6905 57.5688 2.00224 60.5099 1.8771H60.6976V1.18883H60.5099C58.8203 1.31397 56.3799 1.31397 55.4413 1.31397Z" fill="#F0ECE1"/>
<path d="M84.3508 27.5933L75.9658 0.12514L75.9032 0H75.3401L69.8335 17.895C66.2041 29.7832 64.2017 30.8469 62.0742 30.9721H61.8865V31.6603H62.0742C65.1404 31.5978 67.5182 31.5978 70.7095 31.6603H70.8972V30.9721H70.7095C69.7709 30.9721 69.02 30.8469 68.582 30.2838C67.7059 29.0324 68.2065 25.5285 70.3966 18.5207L71.2101 15.8302C71.3978 15.267 71.7733 15.0168 72.3365 15.0168H75.1523C75.7781 15.0168 76.1535 15.267 76.2787 15.8927L79.6577 27.6559C79.9706 28.7821 79.9706 29.5955 79.6577 30.0961C79.2197 30.7844 78.2185 30.9095 76.8419 30.9721H76.6541V31.6603H76.8419C80.6589 31.5352 84.9766 31.5352 88.7936 31.6603H88.9814V30.9721H88.7936C86.3532 30.9095 85.1017 29.9709 84.3508 27.5933ZM72.0236 13.2022L73.8383 7.2581L75.5278 13.2022C75.5904 13.5151 75.5904 13.8279 75.4652 14.0156C75.3401 14.2034 75.0898 14.3285 74.7143 14.3285H72.8371C72.5242 14.3285 72.2739 14.2034 72.0862 14.0156C71.961 13.8279 71.961 13.5151 72.0236 13.2022Z" fill="#F0ECE1"/>
<path d="M110.757 1.12626C106.565 1.31397 103.248 1.31397 99.0559 1.31397C94.8634 1.31397 91.5469 1.31397 87.3544 1.12626H87.1667L86.6035 11.2H87.2918V11.0749C88.3556 2.94078 90.2954 2.0648 94.1751 2.0648C95.9897 2.0648 96.8032 2.75307 96.8032 4.37989V24.2771C96.8032 30.3464 96.1149 31.0346 93.1739 31.1598H92.9862V31.848H93.1739C94.8634 31.7855 97.3038 31.7855 98.1799 31.7855H99.7442C100.683 31.7855 103.061 31.7855 104.75 31.848H104.938V31.1598H104.75C101.809 31.0346 101.121 30.4089 101.121 24.2771V4.31732C101.121 2.6905 101.872 2.00223 103.749 2.00223C107.316 2.00223 109.568 2.56536 110.632 10.0737V10.1989H111.321L110.757 1.06369V1.12626Z" fill="#F0ECE1"/>
<path d="M135.725 21.7117C135.349 28.5318 132.596 30.8469 124.837 30.8469C121.896 30.8469 121.896 30.7844 121.896 28.7196V18.333C121.896 16.143 122.146 16.0804 124.586 16.0804C129.467 16.0804 131.407 17.8324 131.72 22.4626V22.6503H132.408V8.69721H131.72V8.88492C131.407 13.4525 129.342 15.3296 124.586 15.3296C122.083 15.3296 121.896 15.2045 121.896 13.0771V4.31732C121.896 2.44022 122.209 2.0648 125.462 2.0648C132.596 2.0648 134.974 4.00447 135.287 9.9486V10.1363H135.975V1.31397H118.892C117.954 1.31397 115.576 1.31397 113.886 1.2514H113.698V1.87709H113.886C116.827 2.00223 117.515 2.62793 117.515 8.75978V24.152C117.515 30.2212 116.827 30.9095 113.886 31.0346H113.698V31.7229H113.886C115.576 31.6603 118.016 31.6603 118.892 31.6603C128.153 31.6603 131.97 31.6603 136.225 31.7229H136.413V21.5866H135.725V21.7117Z" fill="#F0ECE1"/>
<path d="M161.443 27.5933L153.058 0.12514L152.995 0H152.432L146.926 17.895C143.296 29.7832 141.294 30.8469 139.166 30.9721H138.979V31.6603H139.166C142.233 31.5978 144.61 31.5978 147.802 31.6603H147.989V30.9721H147.802C146.863 30.9721 146.112 30.8469 145.674 30.2838C144.798 29.0324 145.299 25.5285 147.489 18.5207L148.302 15.8302C148.49 15.267 148.865 15.0168 149.429 15.0168H152.244C152.87 15.0168 153.246 15.267 153.371 15.8927L156.75 27.6559C157.063 28.7821 157.063 29.5955 156.75 30.0961C156.312 30.7844 155.311 30.9095 153.934 30.9721H153.746V31.6603H153.934C157.751 31.5352 162.069 31.5352 165.886 31.6603H166.074V30.9721H165.886C163.445 30.9095 162.194 29.9709 161.443 27.5933ZM149.116 13.2022L150.93 7.2581L152.62 13.2022C152.683 13.5151 152.683 13.8279 152.557 14.0156C152.432 14.2034 152.182 14.3285 151.806 14.3285H149.929C149.616 14.3285 149.366 14.2034 149.178 14.0156C149.116 13.8279 149.053 13.5151 149.116 13.2022Z" fill="#F0ECE1"/>
<path d="M184.783 1.31397H184.596V2.00224H184.783C189.414 2.00224 190.227 4.50503 190.227 18.8335C190.227 28.9073 184.596 30.4089 181.217 30.4089C174.083 30.4089 173.207 23.4637 173.207 18.2704V8.75978C173.207 2.6905 173.895 2.00224 176.836 1.8771H177.024V1.18883H176.836C175.147 1.2514 172.706 1.2514 171.83 1.2514H170.203C169.265 1.2514 166.887 1.2514 165.197 1.18883H165.01V1.8771H165.197C168.138 2.00224 168.827 2.62793 168.827 8.75978V20.2101C168.827 30.4715 175.397 32.0358 179.339 32.0358C182.906 32.0358 191.166 30.7844 191.166 19.2089C191.166 5.50615 191.354 1.93967 195.233 1.93967H195.421V1.31397H195.233C190.227 1.37654 189.539 1.37654 184.783 1.31397Z" fill="#F0ECE1"/>
<path d="M223.767 0.625698C213.943 0.625698 207.561 6.82011 207.561 16.3307C207.561 25.7162 214.256 32.0358 224.143 32.0358C233.842 32.0358 240.35 25.7162 240.35 16.3307C240.35 6.94525 233.654 0.625698 223.767 0.625698ZM212.191 16.5184C212.191 7.44581 216.947 1.31397 223.955 1.31397C230.964 1.31397 235.657 7.2581 235.657 16.143C235.657 25.2156 230.901 31.3475 223.83 31.3475C216.884 31.3475 212.191 25.4034 212.191 16.5184Z" fill="#F0ECE1"/>
<path d="M266.944 27.9061L261.125 15.8927C265.442 14.7039 268.008 11.7631 268.008 8.07151C268.008 3.56648 264.316 1.2514 257.12 1.2514H248.422C247.483 1.2514 245.106 1.2514 243.416 1.18883H243.228V1.8771H243.416C246.357 2.00224 247.045 2.62793 247.045 8.75978V24.152C247.045 30.2212 246.357 30.9095 243.416 31.0346H243.228V31.7229H243.416C245.106 31.6603 247.546 31.6603 248.422 31.6603H249.986C250.925 31.6603 253.303 31.6603 254.992 31.7229H255.18V31.0346H254.992C252.051 30.9095 251.363 30.2838 251.363 24.152V18.0827C251.363 17.019 251.926 16.4559 252.99 16.4559H256.432L262.126 28.219C262.564 29.1575 262.814 29.8458 262.564 30.2212C262.314 30.6592 261.25 30.8469 259.247 30.9721H259.06V31.6603H259.247C262.439 31.5978 269.322 31.5978 271.575 31.6603H271.762V30.9721H271.575C269.447 30.9095 268.07 30.3464 266.944 27.9061ZM251.426 3.56648C251.426 3.19106 251.426 2.94078 251.676 2.6905C252.114 2.25251 253.178 2.06481 254.992 2.06481C260.624 2.06481 263.377 4.12961 263.377 8.32179C263.377 9.57319 263.064 15.705 256.369 15.705H253.115C252.051 15.705 251.488 15.1419 251.488 14.0782V3.69162L251.426 3.56648Z" fill="#F0ECE1"/>
<path d="M294.227 20.7732C293.538 28.9698 291.411 30.8469 282.775 30.8469C281.211 30.8469 280.836 30.5967 280.836 28.657V8.75978C280.836 2.6905 281.524 2.00224 284.465 1.8771H284.653V1.18883H284.465C282.775 1.2514 280.335 1.2514 279.459 1.2514H277.895C276.956 1.2514 274.578 1.2514 272.889 1.18883H272.701V1.8771H272.889C275.83 2.00224 276.518 2.62793 276.518 8.75978V24.152C276.518 30.2212 275.83 30.9095 272.889 31.0346H272.701V31.7229H272.889C274.578 31.6603 277.019 31.6603 277.895 31.6603C283.464 31.6603 289.158 31.7229 294.79 31.7855H294.978V20.5855H294.289L294.227 20.7732Z" fill="#F0ECE1"/>
<path d="M304.239 1.31397H302.674C301.736 1.31397 299.358 1.31397 297.668 1.2514H297.481V1.93966H297.668C300.609 2.0648 301.298 2.6905 301.298 8.82235V24.2145C301.298 30.2838 300.609 30.9721 297.668 31.0972H297.481V31.7855H297.668C299.358 31.7229 301.798 31.7229 302.674 31.7229H304.239C305.177 31.7229 307.555 31.7229 309.245 31.7855H309.432V31.0972H309.245C306.304 30.9721 305.615 30.3464 305.615 24.2145V8.82235C305.615 2.75307 306.304 2.0648 309.245 1.93966H309.432V1.2514H309.245C307.618 1.31397 305.177 1.31397 304.239 1.31397Z" fill="#F0ECE1"/>
<path d="M340.219 22.838C338.968 25.7788 335.839 30.6592 328.893 30.6592C321.384 30.6592 317.067 25.3408 317.067 16.0804C317.067 7.13296 321.259 1.37654 327.829 1.37654C335.714 1.37654 337.779 7.8838 338.717 13.5777V13.7654L339.406 13.7028V13.5151C338.968 8.25922 338.968 4.5676 339.531 1.06369V0.875977L338.843 0.813408L338.78 0.938547C338.53 1.87709 338.029 3.06592 337.341 3.06592C337.028 3.06592 336.527 2.81564 335.902 2.50279C334.462 1.81452 332.084 0.625698 328.205 0.625698C320.258 0.625698 312.248 6.06927 312.248 16.5184C312.248 25.6536 318.506 32.0983 327.391 32.0983C333.586 32.0983 338.154 29.0324 340.657 23.1508L340.72 23.0257L340.219 22.7128V22.838Z" fill="#F0ECE1"/>
<path d="M365.249 21.5866V21.7743C364.874 28.5944 362.12 30.9095 354.361 30.9095C351.42 30.9095 351.42 30.8469 351.42 28.7821V18.333C351.42 16.143 351.67 16.0804 354.111 16.0804C358.992 16.0804 360.931 17.8324 361.244 22.4626V22.6503H361.933V8.69721H361.244V8.88492C360.931 13.4525 358.866 15.3296 354.111 15.3296C351.608 15.3296 351.42 15.2045 351.42 13.0771V4.31732C351.42 2.44022 351.733 2.0648 354.987 2.0648C362.12 2.0648 364.498 4.00447 364.811 9.9486V10.1363H365.499V1.31397H348.416C347.478 1.31397 345.1 1.31397 343.41 1.2514H343.223V1.87709H343.41C346.352 2.00223 347.04 2.62793 347.04 8.75978V24.152C347.04 30.2212 346.352 30.9095 343.41 31.0346H343.223V31.7229H343.41C345.1 31.6603 347.54 31.6603 348.416 31.6603C357.678 31.6603 361.495 31.6603 365.75 31.7229H365.937V21.5866H365.249Z" fill="#F0ECE1"/>
<path d="M12.5149 51.4324H0.625732V51.8704H12.5149V51.4324Z" fill="#B99663"/>
<path d="M365.937 51.4324H354.048V51.8704H365.937V51.4324Z" fill="#B99663"/>
<path d="M22.9024 55.1866C23.0275 55.0614 23.1527 54.9363 23.2153 54.8112C23.2778 54.6235 23.2778 54.4358 23.2778 54.1229V49.0547C23.2778 48.7419 23.2778 48.5542 23.2153 48.3665C23.1527 48.1788 23.0901 48.0536 22.9024 47.9911C22.7772 47.8659 22.5269 47.8034 22.1515 47.7408V47.6156H26.0311C26.9072 47.6156 27.6581 47.7408 28.2838 48.0536C28.9096 48.3665 29.4102 48.8045 29.723 49.3676C30.0359 49.9307 30.2236 50.6816 30.2236 51.495C30.2236 52.3084 30.0359 53.0592 29.6605 53.6849C29.285 54.3106 28.7844 54.7486 28.0961 55.0615C27.4078 55.3743 26.5943 55.562 25.7183 55.562H22.1515V55.4369C22.5269 55.3743 22.7772 55.3117 22.9024 55.1866ZM27.2826 54.686C27.7206 54.3732 27.9709 53.9978 28.2212 53.4346C28.4715 52.8715 28.5341 52.3084 28.5341 51.6201C28.5341 50.9318 28.409 50.3061 28.2212 49.743C28.0335 49.1799 27.7206 48.7419 27.2826 48.4916C26.8446 48.1788 26.344 48.0536 25.7808 48.0536H24.9674V55.124H25.7808C26.344 55.1866 26.8446 54.9989 27.2826 54.686Z" fill="#F0ECE1"/>
<path d="M35.2296 49.4302C35.6051 48.8045 36.1057 48.3039 36.7314 47.9285C37.3572 47.5531 38.1081 47.3654 38.9841 47.3654C39.7976 47.3654 40.5485 47.5531 41.1742 47.8659C41.8 48.2413 42.3006 48.6793 42.676 49.305C43.0515 49.9307 43.1766 50.6816 43.1766 51.495C43.1766 52.3084 42.9889 53.0592 42.6135 53.7475C42.238 54.3732 41.7374 54.8737 41.1117 55.2492C40.4859 55.6246 39.735 55.8123 38.859 55.8123C38.0455 55.8123 37.2946 55.6246 36.6688 55.3117C36.0431 54.9363 35.5425 54.4983 35.1671 53.8726C34.7916 53.2469 34.6039 52.5587 34.6039 51.6827C34.729 50.8693 34.9168 50.1184 35.2296 49.4302ZM40.3608 54.9989C40.7362 54.686 40.9865 54.248 41.1742 53.6849C41.362 53.1218 41.4245 52.4335 41.4245 51.6201C41.4245 50.8067 41.2994 50.1184 41.1117 49.4927C40.9239 48.9296 40.6111 48.4916 40.2356 48.1788C39.8602 47.8659 39.4221 47.7408 38.859 47.7408C38.3584 47.7408 37.8578 47.8659 37.5449 48.1788C37.1694 48.4916 36.9192 48.9296 36.7314 49.4927C36.5437 50.0559 36.4811 50.7441 36.4811 51.5575C36.4811 52.3709 36.6063 53.0592 36.794 53.6223C36.9817 54.1855 37.2946 54.6235 37.67 54.9363C38.0455 55.2492 38.4835 55.3743 39.0467 55.3743C39.5473 55.4369 39.9853 55.3117 40.3608 54.9989Z" fill="#F0ECE1"/>
<path d="M49.6218 55.1866C49.8095 55.0614 49.8721 54.9363 49.9347 54.8112C49.9973 54.6235 49.9973 54.4358 49.9973 54.1229V48.0536H49.3715C49.0586 48.0536 48.7458 48.1788 48.4955 48.3665C48.2452 48.5542 47.9949 48.8045 47.8697 49.1173C47.682 49.4302 47.5569 49.8682 47.4943 50.3687H47.4317V47.6782H54.4401V50.3687H54.3149C54.2524 49.8682 54.1272 49.4927 53.9395 49.1173C53.7518 48.8045 53.564 48.4916 53.2512 48.3039C53.0009 48.1162 52.688 48.0536 52.3125 48.0536H51.6868V54.1229C51.6868 54.4358 51.6868 54.6235 51.7494 54.8112C51.8119 54.9989 51.8745 55.124 52.0622 55.1866C52.1874 55.3117 52.5003 55.3743 52.8757 55.4369V55.562H48.8709V55.4369C49.2464 55.3743 49.4967 55.3117 49.6218 55.1866Z" fill="#F0ECE1"/>
<path d="M64.014 54.8737C64.3269 54.686 64.5772 54.4358 64.7649 54.0603C64.9527 53.6849 65.1404 53.3095 65.2655 52.8715H65.3281L65.0778 55.562H58.4449V55.4369C58.7578 55.3743 59.0081 55.2492 59.1958 55.1866C59.3209 55.0614 59.4461 54.9363 59.5087 54.8112C59.5712 54.6235 59.5712 54.4358 59.5712 54.1229V49.0547C59.5712 48.7419 59.5712 48.5542 59.5087 48.3665C59.4461 48.1788 59.3835 48.0536 59.1958 47.9911C59.0706 47.8659 58.8203 47.8034 58.5075 47.7408V47.6156H65.0778V50.3061H65.0152C64.9527 49.8056 64.8275 49.4302 64.6398 49.1173C64.4521 48.8045 64.2643 48.5542 63.9515 48.3665C63.6386 48.1788 63.3257 48.1162 62.9503 48.1162H61.1356V51.3073H62.2619C62.5748 51.3073 62.8877 51.2447 63.138 51.1821C63.3883 51.057 63.576 50.9318 63.7012 50.6816C63.8263 50.4939 63.9515 50.181 64.014 49.8682H64.1392V53.1844H64.014C63.9515 52.8715 63.8889 52.5587 63.7012 52.3709C63.576 52.1832 63.3883 51.9955 63.138 51.8704C62.8877 51.7453 62.6374 51.7452 62.2619 51.7452H61.1356V55.1866H63.0128C63.3883 55.1866 63.7637 55.0614 64.014 54.8737Z" fill="#F0ECE1"/>
<path d="M70.2089 55.1866C70.3341 55.0614 70.4592 54.9363 70.5218 54.8112C70.5844 54.6235 70.5844 54.4358 70.5844 54.1229V49.0547C70.5844 48.7419 70.5844 48.5542 70.5218 48.3665C70.4592 48.1788 70.3966 48.0536 70.2089 47.9911C70.0838 47.8659 69.8335 47.8034 69.458 47.7408V47.6156H73.2751V47.7408C72.8996 47.8034 72.6493 47.9285 72.5242 47.9911C72.399 48.1162 72.2739 48.2413 72.2739 48.3665C72.2113 48.5542 72.2113 48.7419 72.2113 49.0547V54.1229C72.2113 54.4358 72.2113 54.6235 72.2739 54.8112C72.3364 54.9989 72.399 55.124 72.5242 55.1866C72.6493 55.3117 72.8996 55.3743 73.2751 55.4369V55.562H69.458V55.4369C69.8335 55.3743 70.0838 55.3117 70.2089 55.1866ZM72.5242 51.495L75.1523 48.867C75.34 48.6793 75.4026 48.5542 75.4652 48.3665C75.4652 48.1788 75.4026 48.0536 75.2149 47.9285C75.0272 47.8033 74.7769 47.7408 74.4014 47.6782V47.6156H77.9056V47.7408C77.5302 47.8034 77.1547 47.9285 76.8418 48.1162C76.529 48.3039 76.1535 48.5542 75.7781 48.9296L73.9634 50.7441L76.5915 54.4358C76.7793 54.686 76.9044 54.8737 77.0296 54.9989C77.1547 55.124 77.2799 55.2492 77.405 55.3117C77.5302 55.3743 77.7179 55.4369 77.9682 55.4994V55.6246H75.4026L72.5242 51.495Z" fill="#F0ECE1"/>
<path d="M90.5457 54.8112C90.6083 54.9989 90.7334 55.124 90.8586 55.1866C91.0463 55.3117 91.2966 55.3743 91.7347 55.4369V55.562H87.7299V55.4369C88.0427 55.3743 88.293 55.2492 88.4182 55.1866C88.5433 55.0614 88.6685 54.9363 88.7311 54.8112C88.7936 54.6235 88.7936 54.4358 88.7936 54.1229V49.0547C88.7936 48.7419 88.7936 48.5542 88.7311 48.3665C88.6685 48.1788 88.6059 48.0536 88.4182 47.9911C88.293 47.8659 88.0427 47.8034 87.7299 47.7408V47.6156H91.7347V47.7408C91.2966 47.8034 91.0463 47.9285 90.8586 47.9911C90.6709 48.1162 90.6083 48.2413 90.5457 48.3665C90.4831 48.5542 90.4832 48.7419 90.4832 49.0547V51.3073H94.4879V49.1173C94.4879 48.8045 94.4879 48.6168 94.4254 48.429C94.3628 48.2413 94.2376 48.1162 94.1125 48.0536C93.9248 47.9285 93.6745 47.8659 93.2364 47.8034V47.6782H97.3038V47.8034C96.9284 47.8659 96.6781 47.9911 96.5529 48.0536C96.4278 48.1788 96.3026 48.3039 96.24 48.429C96.1775 48.6168 96.1775 48.8045 96.1775 49.1173V54.1855C96.1775 54.4983 96.1775 54.686 96.24 54.8737C96.3026 55.0614 96.3652 55.1866 96.5529 55.2492C96.6781 55.3743 96.9284 55.4369 97.3038 55.4994V55.6246H93.2364V55.4994C93.6745 55.4369 93.9248 55.3117 94.1125 55.2492C94.3002 55.124 94.3628 54.9989 94.4254 54.8737C94.4879 54.686 94.4879 54.4983 94.4879 54.1855V51.8078H90.4832V54.1855C90.4206 54.4358 90.4831 54.6235 90.5457 54.8112Z" fill="#F0ECE1"/>
<path d="M102.059 55.1866C102.185 55.0614 102.31 54.9363 102.372 54.8112C102.435 54.6235 102.435 54.4358 102.435 54.1229V49.0547C102.435 48.7419 102.435 48.5542 102.372 48.3665C102.31 48.1788 102.247 48.0536 102.059 47.9911C101.934 47.8659 101.684 47.8034 101.309 47.7408V47.6156H105.126V47.7408C104.75 47.8034 104.5 47.9285 104.375 47.9911C104.25 48.1162 104.124 48.2413 104.124 48.3665C104.062 48.5542 104.062 48.7419 104.062 49.0547V54.1229C104.062 54.4358 104.062 54.6235 104.124 54.8112C104.187 54.9989 104.25 55.124 104.375 55.1866C104.5 55.3117 104.75 55.3743 105.126 55.4369V55.562H101.309V55.4369C101.684 55.3743 101.872 55.3117 102.059 55.1866Z" fill="#F0ECE1"/>
<path d="M109.568 52.5587H109.694C109.819 53.2469 110.006 53.8101 110.319 54.1855C110.57 54.6235 110.945 54.9363 111.321 55.124C111.696 55.3117 112.134 55.4369 112.635 55.4369C113.073 55.4369 113.448 55.3117 113.698 55.124C113.949 54.9363 114.074 54.6235 114.074 54.3732C114.074 54.1229 114.011 53.8726 113.886 53.6849C113.761 53.4972 113.511 53.3095 113.26 53.0592C112.947 52.8715 112.509 52.6212 111.946 52.3709C111.321 52.0581 110.82 51.8078 110.445 51.5575C110.069 51.3073 109.819 51.057 109.631 50.7441C109.443 50.4313 109.381 50.1184 109.381 49.743C109.381 49.2425 109.506 48.867 109.756 48.4916C110.006 48.1162 110.382 47.8659 110.82 47.6782C111.258 47.4905 111.821 47.4279 112.447 47.4279C112.947 47.4279 113.448 47.4905 113.949 47.5531C114.387 47.6156 114.825 47.7408 115.263 47.8659L114.825 50.5564H114.7C114.574 49.9307 114.387 49.3676 114.136 48.9922C113.886 48.6168 113.573 48.3039 113.198 48.1162C112.822 47.9285 112.447 47.8659 112.009 47.8659C111.633 47.8659 111.321 47.9911 111.07 48.1788C110.82 48.3665 110.695 48.6793 110.695 48.9922C110.695 49.2425 110.757 49.4927 110.883 49.6804C111.008 49.8682 111.258 50.0559 111.508 50.3061C111.821 50.4939 112.259 50.7441 112.76 50.9318C113.448 51.2447 113.949 51.495 114.324 51.7452C114.7 51.9955 114.95 52.2458 115.138 52.5587C115.325 52.8089 115.388 53.1844 115.388 53.5598C115.388 54.0603 115.263 54.4358 115.012 54.8112C114.762 55.1866 114.387 55.4369 113.886 55.6246C113.386 55.8123 112.885 55.9374 112.259 55.9374C111.759 55.9374 111.258 55.8749 110.757 55.7497C110.257 55.6246 109.819 55.4994 109.381 55.3117L109.568 52.5587Z" fill="#F0ECE1"/>
<path d="M121.896 55.1866C122.083 55.0614 122.146 54.9363 122.209 54.8112C122.271 54.6235 122.271 54.4358 122.271 54.1229V48.0536H121.645C121.333 48.0536 121.02 48.1788 120.769 48.3665C120.519 48.5542 120.269 48.8045 120.144 49.1173C119.956 49.4302 119.831 49.8682 119.768 50.3687H119.706V47.6782H126.714V50.3687H126.589C126.526 49.8682 126.401 49.4927 126.213 49.1173C126.026 48.8045 125.838 48.4916 125.525 48.3039C125.275 48.1162 124.962 48.0536 124.586 48.0536H123.961V54.1229C123.961 54.4358 123.961 54.6235 124.023 54.8112C124.086 54.9989 124.148 55.124 124.336 55.1866C124.461 55.3117 124.774 55.3743 125.15 55.4369V55.562H121.145V55.4369C121.458 55.3743 121.771 55.3117 121.896 55.1866Z" fill="#F0ECE1"/>
<path d="M131.282 49.4302C131.657 48.8045 132.158 48.3039 132.784 47.9285C133.409 47.5531 134.16 47.3654 135.036 47.3654C135.912 47.3654 136.601 47.5531 137.227 47.8659C137.852 48.2413 138.353 48.6793 138.728 49.305C139.104 49.9307 139.229 50.6816 139.229 51.495C139.229 52.3084 139.041 53.0592 138.666 53.7475C138.29 54.4358 137.79 54.8737 137.164 55.2492C136.538 55.6246 135.787 55.8123 134.911 55.8123C134.098 55.8123 133.347 55.6246 132.721 55.3117C132.095 54.9363 131.595 54.4983 131.219 53.8726C130.844 53.2469 130.656 52.5587 130.656 51.6827C130.719 50.8693 130.906 50.1184 131.282 49.4302ZM136.35 54.9989C136.726 54.686 136.976 54.248 137.164 53.6849C137.352 53.1218 137.414 52.4335 137.414 51.6201C137.414 50.8067 137.289 50.1184 137.101 49.4927C136.914 48.9296 136.601 48.4916 136.225 48.1788C135.85 47.8659 135.412 47.7408 134.849 47.7408C134.348 47.7408 133.847 47.8659 133.535 48.1788C133.159 48.4916 132.909 48.9296 132.721 49.4927C132.533 50.0559 132.471 50.7441 132.471 51.5575C132.471 52.3709 132.596 53.0592 132.784 53.6223C132.971 54.1855 133.284 54.6235 133.66 54.9363C134.035 55.2492 134.473 55.3743 135.036 55.3743C135.537 55.4369 136.038 55.3117 136.35 54.9989Z" fill="#F0ECE1"/>
<path d="M143.922 55.1866C144.047 55.0614 144.172 54.9363 144.235 54.8112C144.297 54.6235 144.297 54.4358 144.297 54.1229V49.0547C144.297 48.7419 144.297 48.5542 144.235 48.3665C144.172 48.1788 144.11 48.0536 143.922 47.9911C143.797 47.8659 143.547 47.8034 143.171 47.7408V47.6156H146.863C147.927 47.6156 148.74 47.8033 149.366 48.1788C149.929 48.5542 150.242 49.0547 150.242 49.743C150.242 50.2436 150.054 50.6816 149.679 50.9944C149.303 51.3698 148.865 51.5575 148.302 51.6827L149.741 53.9978C149.804 54.1229 149.867 54.248 149.929 54.3106C150.117 54.6235 150.367 54.8737 150.555 55.0615C150.743 55.2492 150.993 55.3117 151.306 55.4369V55.562H148.803L146.613 51.9955H145.987V54.1229C145.987 54.4358 145.987 54.6235 146.05 54.8112C146.112 54.9989 146.175 55.124 146.3 55.1866C146.425 55.3117 146.675 55.3743 147.051 55.4369V55.562H143.234V55.4369C143.547 55.3743 143.797 55.3117 143.922 55.1866ZM147.989 51.1195C148.302 50.8067 148.427 50.4313 148.427 49.8682C148.427 49.305 148.24 48.867 147.927 48.5542C147.614 48.2413 147.176 48.0536 146.613 48.0536H145.924V51.5575H146.738C147.301 51.5575 147.739 51.4324 147.989 51.1195Z" fill="#F0ECE1"/>
<path d="M155.874 55.1866C155.999 55.0614 156.124 54.9363 156.187 54.8112C156.249 54.6235 156.249 54.4358 156.249 54.1229V49.0547C156.249 48.7419 156.249 48.5542 156.187 48.3665C156.124 48.1788 156.062 48.0536 155.874 47.9911C155.749 47.8659 155.498 47.8034 155.123 47.7408V47.6156H158.94V47.7408C158.565 47.8034 158.314 47.9285 158.189 47.9911C158.064 48.1162 157.939 48.2413 157.939 48.3665C157.876 48.5542 157.876 48.7419 157.876 49.0547V54.1229C157.876 54.4358 157.876 54.6235 157.939 54.8112C158.001 54.9989 158.064 55.124 158.189 55.1866C158.314 55.3117 158.565 55.3743 158.94 55.4369V55.562H155.186V55.4369C155.498 55.3743 155.749 55.3117 155.874 55.1866Z" fill="#F0ECE1"/>
<path d="M168.764 54.8737C169.077 54.686 169.327 54.4358 169.515 54.0603C169.703 53.6849 169.891 53.3095 170.016 52.8715H170.078L169.828 55.562H163.133V55.4369C163.445 55.3743 163.696 55.2492 163.883 55.1866C164.009 55.0614 164.134 54.9363 164.196 54.8112C164.259 54.6235 164.259 54.4358 164.259 54.1229V49.0547C164.259 48.7419 164.259 48.5542 164.196 48.3665C164.134 48.1788 164.071 48.0536 163.883 47.9911C163.758 47.8659 163.508 47.8034 163.195 47.7408V47.6156H169.828V50.3061H169.765C169.703 49.8056 169.578 49.4302 169.39 49.1173C169.202 48.8045 169.015 48.5542 168.702 48.3665C168.389 48.1788 168.076 48.1162 167.7 48.1162H165.886V51.3073H167.012C167.325 51.3073 167.638 51.2447 167.888 51.1821C168.138 51.057 168.326 50.9318 168.451 50.6816C168.577 50.4939 168.702 50.181 168.764 49.8682H168.889V53.1844H168.764C168.702 52.8715 168.639 52.5587 168.451 52.3709C168.326 52.1832 168.138 51.9955 167.888 51.8704C167.638 51.7453 167.388 51.7452 167.012 51.7452H165.886V55.1866H167.763C168.138 55.1866 168.451 55.0614 168.764 54.8737Z" fill="#F0ECE1"/>
<path d="M201.178 54.9363C201.428 54.7486 201.679 54.4983 201.866 54.1855C202.054 53.8726 202.242 53.3721 202.429 52.8089H202.555L202.304 55.6246H196.172V55.562L200.427 48.1162H198.55C198.174 48.1162 197.862 48.1788 197.611 48.3665C197.361 48.4916 197.173 48.7419 196.985 49.0547C196.798 49.3676 196.673 49.8682 196.547 50.4313H196.485V47.6782H202.429V47.7408L198.174 55.1866H200.239C200.615 55.1866 200.928 55.0615 201.178 54.9363Z" fill="#F0ECE1"/>
<path d="M207.06 55.2492C207.248 55.124 207.373 54.9363 207.561 54.7486C207.686 54.5609 207.811 54.248 207.936 53.9352L210.001 48.429C209.876 48.2413 209.751 47.9911 209.5 47.6782H211.44L214.068 54.1229C214.194 54.4357 214.319 54.686 214.444 54.8737C214.506 55.0614 214.632 55.1866 214.819 55.3117C214.944 55.4369 215.132 55.4994 215.382 55.562V55.6871H211.503V55.562C211.816 55.4994 212.066 55.4369 212.254 55.3117C212.379 55.1866 212.441 55.0614 212.441 54.8737C212.441 54.686 212.379 54.4357 212.254 54.1855L211.816 53.1218H208.812L208.437 54.0603C208.312 54.3732 208.312 54.6235 208.312 54.8112C208.312 54.9989 208.437 55.1866 208.562 55.3117C208.75 55.4369 209 55.562 209.313 55.6246V55.7497H206.309V55.6246C206.622 55.4369 206.872 55.3117 207.06 55.2492ZM211.691 52.5587L210.314 49.0547L209 52.5587H211.691ZM209.813 47.1776L209.751 47.1151L211.816 44.362L212.754 45.5508L209.813 47.1776Z" fill="#F0ECE1"/>
<path d="M224.268 54.9363C224.518 54.7486 224.769 54.4983 224.956 54.1855C225.144 53.8726 225.332 53.3721 225.52 52.8089H225.645L225.394 55.6246H219.262V55.562L223.517 48.1162H221.64C221.264 48.1162 220.952 48.1788 220.701 48.3665C220.451 48.4916 220.263 48.7419 220.076 49.0547C219.888 49.3676 219.763 49.8682 219.638 50.4313H219.575V47.6782H225.52V47.7408L221.264 55.1866H223.329C223.705 55.1866 224.018 55.0615 224.268 54.9363ZM220.576 44.362L220.514 44.4246L222.579 47.0525H222.641L224.706 44.362L224.644 44.2994L222.579 45.4883L220.576 44.362Z" fill="#F0ECE1"/>
<path d="M230.526 55.1866C230.651 55.0614 230.776 54.9363 230.838 54.8112C230.901 54.6235 230.901 54.4358 230.901 54.1229V49.0547C230.901 48.7419 230.901 48.5542 230.838 48.3665C230.776 48.1788 230.713 48.0536 230.526 47.9911C230.4 47.8659 230.15 47.8034 229.775 47.7408V47.6156H233.592V47.7408C233.216 47.8034 232.966 47.9285 232.841 47.9911C232.716 48.1162 232.591 48.2413 232.591 48.3665C232.528 48.5542 232.528 48.7419 232.528 49.0547V54.1229C232.528 54.4358 232.528 54.6235 232.591 54.8112C232.653 54.9989 232.716 55.124 232.841 55.1866C232.966 55.3117 233.216 55.3743 233.592 55.4369V55.562H229.775V55.4369C230.15 55.3743 230.338 55.3117 230.526 55.1866Z" fill="#F0ECE1"/>
<path d="M239.912 55.1866C240.1 55.0614 240.162 54.9363 240.225 54.8112C240.287 54.6235 240.287 54.4358 240.287 54.1229V48.0536H239.662C239.349 48.0536 239.036 48.1788 238.785 48.3665C238.535 48.5542 238.285 48.8045 238.16 49.1173C237.972 49.4302 237.847 49.8682 237.784 50.3687H237.722V47.6782H244.667V50.3687H244.542C244.48 49.8682 244.355 49.4927 244.167 49.1173C243.979 48.8045 243.791 48.4916 243.479 48.3039C243.166 48.1162 242.915 48.0536 242.54 48.0536H241.914V54.1229C241.914 54.4358 241.914 54.6235 241.977 54.8112C242.039 54.9989 242.102 55.124 242.29 55.1866C242.415 55.3117 242.728 55.3743 243.103 55.4369V55.562H239.098V55.4369C239.474 55.3743 239.787 55.3117 239.912 55.1866Z" fill="#F0ECE1"/>
<path d="M254.304 54.8737C254.617 54.686 254.867 54.4358 255.055 54.0603C255.243 53.6849 255.43 53.3095 255.555 52.8715H255.618L255.368 55.562H248.672V55.4369C248.985 55.3743 249.235 55.2492 249.423 55.1866C249.548 55.0614 249.673 54.9363 249.736 54.8112C249.799 54.6235 249.799 54.4358 249.799 54.1229V49.0547C249.799 48.7419 249.799 48.5542 249.736 48.3665C249.673 48.1788 249.611 48.0536 249.423 47.9911C249.298 47.8659 249.048 47.8034 248.735 47.7408V47.6156H255.368V50.3061H255.305C255.243 49.8056 255.117 49.4302 254.93 49.1173C254.742 48.8045 254.554 48.5542 254.241 48.3665C253.929 48.1788 253.616 48.1162 253.24 48.1162H251.426V51.3073H252.552C252.865 51.3073 253.178 51.2447 253.428 51.1821C253.678 51.057 253.866 50.9318 253.991 50.6816C254.116 50.4939 254.241 50.181 254.304 49.8682H254.429V53.1844H254.304C254.241 52.8715 254.179 52.5587 253.991 52.3709C253.866 52.1832 253.678 51.9955 253.428 51.8704C253.178 51.7453 252.927 51.7452 252.552 51.7452H251.426V55.1866H253.303C253.678 55.1866 253.991 55.0614 254.304 54.8737Z" fill="#F0ECE1"/>
<path d="M260.499 55.1866C260.624 55.0614 260.749 54.9363 260.812 54.8112C260.874 54.6235 260.874 54.4358 260.874 54.1229V49.0547C260.874 48.7419 260.874 48.5542 260.812 48.3665C260.749 48.1788 260.687 48.0536 260.499 47.9911C260.374 47.8659 260.123 47.8034 259.748 47.7408V47.6156H263.565V47.7408C263.19 47.8034 262.939 47.9285 262.814 47.9911C262.689 48.1162 262.564 48.2413 262.564 48.3665C262.501 48.5542 262.501 48.7419 262.501 49.0547V54.1229C262.501 54.4358 262.501 54.6235 262.564 54.8112C262.626 54.9989 262.689 55.124 262.814 55.1866C262.939 55.3117 263.19 55.3743 263.565 55.4369V55.562H259.748V55.4369C260.123 55.3743 260.374 55.3117 260.499 55.1866ZM262.752 51.495L265.38 48.867C265.568 48.6793 265.63 48.5542 265.693 48.3665C265.693 48.1788 265.63 48.0536 265.442 47.9285C265.255 47.8033 265.004 47.7408 264.629 47.6782V47.6156H268.133V47.7408C267.758 47.8034 267.382 47.9285 267.069 48.1162C266.756 48.3039 266.381 48.5542 266.006 48.9296L264.191 50.7441L266.819 54.4358C267.007 54.686 267.132 54.8737 267.257 54.9989C267.382 55.124 267.507 55.2492 267.632 55.3117C267.758 55.3743 267.945 55.4369 268.196 55.4994V55.6246H265.63L262.752 51.495Z" fill="#F0ECE1"/>
<path d="M283.151 54.8737C283.464 54.686 283.714 54.3732 283.902 54.0603C284.09 53.6849 284.277 53.2469 284.34 52.8089H284.465L284.215 55.6246H277.895V55.4994C278.208 55.4369 278.458 55.3117 278.583 55.2492C278.708 55.124 278.833 54.9989 278.896 54.8737C278.958 54.686 278.958 54.4983 278.958 54.1855V49.1173C278.958 48.8045 278.958 48.6168 278.896 48.429C278.833 48.2413 278.771 48.1162 278.583 48.0536C278.458 47.9285 278.208 47.8659 277.895 47.8033V47.6782H281.899V47.8033C281.461 47.8659 281.211 47.9911 281.023 48.0536C280.836 48.1788 280.773 48.3039 280.711 48.429C280.648 48.6168 280.648 48.8045 280.648 49.1173V55.1866H282.087C282.525 55.1866 282.901 55.0614 283.151 54.8737Z" fill="#F0ECE1"/>
<path d="M289.096 48.429C289.033 48.2413 288.97 48.1162 288.783 48.0536C288.658 47.9285 288.407 47.8659 288.094 47.8034V47.6782H291.974V47.8034C291.599 47.8659 291.348 47.9911 291.223 48.0536C291.098 48.1788 290.973 48.3039 290.91 48.429C290.848 48.6168 290.848 48.8045 290.848 49.1173V52.7464C290.848 53.6223 291.035 54.3106 291.348 54.7486C291.724 55.1866 292.224 55.3743 292.85 55.3743C293.601 55.3743 294.164 55.124 294.602 54.686C294.978 54.248 295.228 53.5598 295.228 52.6838V49.1799C295.228 48.867 295.228 48.6168 295.165 48.4916C295.103 48.3039 294.978 48.1788 294.852 48.0536C294.665 47.9285 294.414 47.8034 293.976 47.7408V47.6156H296.792V47.7408C296.479 47.8034 296.229 47.9285 296.104 48.0536C295.979 48.1788 295.854 48.3039 295.854 48.4916C295.791 48.6793 295.791 48.9296 295.791 49.1799V52.7464C295.791 53.7475 295.541 54.4983 294.978 54.9989C294.414 55.562 293.664 55.8123 292.725 55.8123C291.599 55.8123 290.723 55.562 290.159 54.9989C289.534 54.4983 289.221 53.7475 289.221 52.8089V49.0547C289.158 48.8045 289.158 48.5542 289.096 48.429Z" fill="#F0ECE1"/>
<path d="M301.298 55.2492C301.485 55.124 301.736 54.9989 301.923 54.8112C302.111 54.6235 302.361 54.3732 302.612 53.9978L304.176 51.8704L302.424 49.2425C302.236 48.9296 302.049 48.6793 301.861 48.4916C301.673 48.3039 301.485 48.1788 301.298 48.0536C301.11 47.9285 300.86 47.8659 300.609 47.8033V47.6782H304.864V47.8033C304.489 47.8659 304.176 47.9285 304.051 48.0536C303.926 48.1162 303.863 48.2413 303.863 48.429C303.863 48.6168 303.988 48.867 304.239 49.1799L305.365 50.9318L306.554 49.3676C306.804 49.0547 306.929 48.7419 306.992 48.5542C307.055 48.3665 306.929 48.1788 306.804 48.0536C306.679 47.9285 306.366 47.8659 305.928 47.8033V47.6782H309.182V47.8033C308.869 47.8659 308.556 48.0536 308.181 48.3039C307.805 48.5542 307.493 48.9296 307.18 49.4302L305.741 51.3698L307.493 54.0603C307.68 54.3732 307.868 54.6235 308.118 54.8112C308.306 54.9989 308.494 55.124 308.682 55.2492C308.869 55.3743 309.12 55.4369 309.37 55.4994V55.6246H305.052V55.4994C305.428 55.4369 305.678 55.3743 305.803 55.2492C305.928 55.1866 305.991 54.9989 305.991 54.8737C305.991 54.686 305.866 54.4358 305.678 54.1229L304.552 52.3084L303.3 54.0603C303.112 54.3732 302.987 54.6235 302.925 54.8112C302.925 54.9989 302.987 55.124 303.112 55.2492C303.3 55.3743 303.55 55.4369 303.988 55.4994V55.6246H300.672V55.4994C300.797 55.4369 301.047 55.3117 301.298 55.2492Z" fill="#F0ECE1"/>
<path d="M313.938 48.429C313.875 48.2413 313.813 48.1162 313.625 48.0536C313.5 47.9285 313.249 47.8659 312.937 47.8034V47.6782H316.816V47.8034C316.441 47.8659 316.19 47.9911 316.065 48.0536C315.94 48.1788 315.815 48.3039 315.752 48.429C315.69 48.6168 315.69 48.8045 315.69 49.1173V52.7464C315.69 53.6223 315.878 54.3106 316.19 54.7486C316.503 55.1866 317.066 55.3743 317.692 55.3743C318.443 55.3743 319.006 55.124 319.444 54.686C319.82 54.248 320.07 53.5598 320.07 52.6838V49.1799C320.07 48.867 320.07 48.6168 320.007 48.4916C319.945 48.3039 319.82 48.1788 319.695 48.0536C319.507 47.9285 319.257 47.8034 318.819 47.7408V47.6156H321.634V47.7408C321.322 47.8034 321.071 47.9285 320.946 48.0536C320.821 48.1788 320.696 48.3039 320.696 48.4916C320.633 48.6793 320.633 48.9296 320.633 49.1799V52.7464C320.633 53.7475 320.383 54.4983 319.82 54.9989C319.257 55.562 318.506 55.8123 317.567 55.8123C316.441 55.8123 315.565 55.562 315.001 54.9989C314.376 54.4983 314.063 53.7475 314.063 52.8089V49.0547C314 48.8045 314 48.5542 313.938 48.429Z" fill="#F0ECE1"/>
<path d="M325.889 52.5587H326.015C326.14 53.2469 326.328 53.8101 326.64 54.1855C326.891 54.6235 327.266 54.9363 327.642 55.124C328.017 55.3117 328.455 55.4369 328.956 55.4369C329.394 55.4369 329.769 55.3117 330.019 55.124C330.27 54.9363 330.395 54.6235 330.395 54.3732C330.395 54.1229 330.332 53.8726 330.207 53.6849C330.082 53.4972 329.832 53.3095 329.581 53.0592C329.269 52.8715 328.831 52.6212 328.267 52.3709C327.642 52.0581 327.141 51.8078 326.766 51.5575C326.39 51.3073 326.14 51.057 325.952 50.7441C325.764 50.4313 325.702 50.1184 325.702 49.743C325.702 49.2425 325.827 48.867 326.077 48.4916C326.328 48.1162 326.703 47.8659 327.141 47.6782C327.579 47.4905 328.142 47.4279 328.768 47.4279C329.269 47.4279 329.769 47.4905 330.27 47.5531C330.708 47.6156 331.146 47.7408 331.584 47.8659L331.146 50.5564H331.021C330.895 49.9307 330.708 49.3676 330.457 48.9922C330.207 48.6168 329.894 48.3039 329.519 48.1162C329.143 47.9285 328.768 47.8659 328.33 47.8659C327.954 47.8659 327.642 47.9911 327.391 48.1788C327.141 48.3665 327.016 48.6793 327.016 48.9922C327.016 49.2425 327.078 49.4927 327.204 49.6804C327.329 49.8682 327.579 50.0559 327.829 50.3061C328.142 50.4939 328.58 50.7441 329.081 50.9318C329.769 51.2447 330.27 51.495 330.645 51.7452C331.021 51.9955 331.271 52.2458 331.459 52.5587C331.646 52.8089 331.709 53.1844 331.709 53.5598C331.709 54.0603 331.584 54.4358 331.334 54.8112C331.083 55.1866 330.708 55.4369 330.207 55.6246C329.707 55.8123 329.206 55.9374 328.58 55.9374C328.08 55.9374 327.579 55.8749 327.078 55.7497C326.578 55.6246 326.14 55.4994 325.702 55.3117L325.889 52.5587Z" fill="#F0ECE1"/>
<path d="M336.715 48.429C336.652 48.2413 336.59 48.1162 336.402 48.0536C336.277 47.9285 336.027 47.8659 335.714 47.8034V47.6782H339.594V47.8034C339.218 47.8659 338.968 47.9911 338.843 48.0536C338.717 48.1788 338.592 48.3039 338.53 48.429C338.467 48.6168 338.467 48.8045 338.467 49.1173V52.7464C338.467 53.6223 338.655 54.3106 338.968 54.7486C339.281 55.1866 339.844 55.3743 340.47 55.3743C341.22 55.3743 341.784 55.124 342.222 54.686C342.597 54.248 342.847 53.5598 342.847 52.6838V49.1799C342.847 48.867 342.847 48.6168 342.785 48.4916C342.722 48.3039 342.597 48.1788 342.472 48.0536C342.284 47.9285 342.034 47.8034 341.596 47.7408V47.6156H344.412V47.7408C344.099 47.8034 343.849 47.9285 343.723 48.0536C343.598 48.1788 343.473 48.3039 343.473 48.4916C343.411 48.6793 343.411 48.9296 343.411 49.1799V52.7464C343.411 53.7475 343.16 54.4983 342.597 54.9989C342.034 55.562 341.283 55.8123 340.344 55.8123C339.218 55.8123 338.342 55.562 337.779 54.9989C337.153 54.4983 336.84 53.7475 336.84 52.8089V49.0547C336.84 48.8045 336.778 48.5542 336.715 48.429Z" fill="#F0ECE1"/>
<path d="M184.778 51.6038L181.637 48.4626L178.495 51.6038L181.637 54.7451L184.778 51.6038Z" fill="#B99663"/>
<path d="M184.783 49.1799L187.224 51.6201L184.783 54.0603L182.343 51.6201L184.783 49.1799ZM184.783 48.4916L181.655 51.6201L184.783 54.7486L187.912 51.6201L184.783 48.4916Z" fill="#B99663"/>
</g>
<defs>
<clipPath id="clip0_7_509">
<rect width="366" height="56" fill="white"/>
</clipPath>
</defs>
</svg>
