<?xml version="1.0" encoding="utf-8"?>
<!-- Generator: Adobe Illustrator 28.2.0, SVG Export Plug-In . SVG Version: 6.00 Build 0)  -->
<svg version="1.1" id="Layer_1" xmlns="http://www.w3.org/2000/svg" xmlns:xlink="http://www.w3.org/1999/xlink" x="0px" y="0px"
	 viewBox="0 0 584.9 89.5" style="enable-background:new 0 0 584.9 89.5;" xml:space="preserve">
<style type="text/css">
	.st0{fill:#1E1E1C;}
	.st1{fill:#B99663;}
</style>
<g>
	<path class="st0" d="M44.6,36.5c-2,4.7-7,12.5-18.1,12.5c-12,0-18.9-8.5-18.9-23.3c0-14.3,6.7-23.5,17.2-23.5
		c12.6,0,15.9,10.4,17.4,19.5l0,0.3l1.1-0.1l0-0.3c-0.7-8.4-0.7-14.3,0.2-19.9l0-0.3l-1.1-0.1l-0.1,0.2c-0.4,1.5-1.2,3.4-2.3,3.4
		c-0.5,0-1.3-0.4-2.3-0.9c-2.3-1.1-6.1-3-12.3-3C12.8,1,0,9.7,0,26.4C0,41,10,51.2,24.2,51.2c9.9,0,17.2-4.9,21.2-14.3l0.1-0.2
		l-0.8-0.5L44.6,36.5z"/>
	<path class="st0" d="M88.6,2.1h-2.7c-1.3,0-4.9,0-7.4-0.1l-0.3,0V3l0.3,0c4.2,0.2,5.3,1.3,5.3,11v8.5c0,1.7-0.9,2.6-2.6,2.6H65.2
		c-1.7,0-2.6-0.9-2.6-2.6V14c0-9.7,1.1-10.8,5.3-11l0.3,0V1.9l-0.3,0c-2.5,0.1-5.9,0.1-7.4,0.1h-2.7c-1.5,0-5.3,0-8-0.1l-0.3,0V3
		l0.3,0c4.7,0.2,5.8,1.2,5.8,11v24.6c0,9.7-1.1,10.8-5.8,11l-0.3,0v1.1l0.3,0c2.7-0.1,6.6-0.1,8-0.1h2.7c1.5,0,4.9,0,7.4,0.1l0.3,0
		v-1.1l-0.3,0c-4.2-0.2-5.3-1.3-5.3-11v-9.8c0-1.7,0.9-2.5,2.6-2.5h16.1c1.7,0,2.6,0.8,2.6,2.5v9.8c0,9.7-1.1,10.8-5.3,11l-0.3,0
		v1.1l0.3,0c2.5-0.1,6-0.1,7.4-0.1h2.7c1.5,0,5.3,0,8,0.1l0.3,0v-1.1l-0.3,0c-4.7-0.2-5.8-1.2-5.8-11V14c0-9.7,1.1-10.8,5.8-11
		l0.3,0V1.9l-0.3,0C94,2.1,90.1,2.1,88.6,2.1z"/>
	<path class="st0" d="M134.8,44.1L121.4,0.2L121.3,0h-0.9l-8.8,28.6v0c-5.8,19-9,20.7-12.4,20.9l-0.3,0v1.1l0.3,0
		c4.9-0.1,8.7-0.1,13.8,0l0.3,0v-1.1l-0.3,0c-1.5,0-2.7-0.2-3.4-1.1c-1.4-2-0.6-7.6,2.9-18.8l1.3-4.3c0.3-0.9,0.9-1.3,1.8-1.3h4.5
		c1,0,1.6,0.4,1.8,1.4l5.4,18.8c0.5,1.8,0.5,3.1,0,3.9c-0.7,1.1-2.3,1.3-4.5,1.4l-0.3,0v1.1l0.3,0c6.1-0.2,13-0.2,19.1,0l0.3,0v-1.1
		l-0.3,0C138,49.4,136,47.9,134.8,44.1z M115.1,21.1l2.9-9.5l2.7,9.5c0.1,0.5,0.1,1-0.1,1.3c-0.2,0.3-0.6,0.5-1.2,0.5h-3
		c-0.5,0-0.9-0.2-1.2-0.5C115,22.1,115,21.6,115.1,21.1z"/>
	<path class="st0" d="M177,1.8c-6.7,0.3-12,0.3-18.7,0.3c-6.7,0-12,0-18.7-0.3l-0.3,0l-0.9,16.1h1.1l0-0.2c1.7-13,4.8-14.4,11-14.4
		c2.9,0,4.2,1.1,4.2,3.7v31.8c0,9.7-1.1,10.8-5.8,11l-0.3,0v1.1l0.3,0c2.7-0.1,6.6-0.1,8-0.1h2.5c1.5,0,5.3,0,8,0.1l0.3,0v-1.1
		l-0.3,0c-4.7-0.2-5.8-1.2-5.8-11V6.9c0-2.6,1.2-3.7,4.2-3.7c5.7,0,9.3,0.9,11,12.9l0,0.2h1.1l-0.9-14.6L177,1.8z"/>
	<path class="st0" d="M216.9,34.7c-0.6,10.9-5,14.6-17.4,14.6c-4.7,0-4.7-0.1-4.7-3.4V29.3c0-3.5,0.4-3.6,4.3-3.6
		c7.8,0,10.9,2.8,11.4,10.2l0,0.3h1.1V13.9h-1.1l0,0.3c-0.5,7.3-3.8,10.3-11.4,10.3c-4,0-4.3-0.2-4.3-3.6V6.9c0-3,0.5-3.6,5.7-3.6
		c11.4,0,15.2,3.1,15.7,12.6l0,0.3h1.1V2.1h-27.3c-1.5,0-5.3,0-8-0.1l-0.3,0V3l0.3,0c4.7,0.2,5.8,1.2,5.8,11v24.6
		c0,9.7-1.1,10.8-5.8,11l-0.3,0v1.1l0.3,0c2.7-0.1,6.6-0.1,8-0.1c14.8,0,20.9,0,27.7,0.1l0.3,0V34.5h-1.1L216.9,34.7z"/>
	<path class="st0" d="M258,44.1L244.6,0.2L244.5,0h-0.9l-8.8,28.6v0c-5.8,19-9,20.7-12.4,20.9l-0.3,0v1.1l0.3,0
		c4.9-0.1,8.7-0.1,13.8,0l0.3,0v-1.1l-0.3,0c-1.5,0-2.7-0.2-3.4-1.1c-1.4-2-0.6-7.6,2.9-18.8l1.3-4.3c0.3-0.9,0.9-1.3,1.8-1.3h4.5
		c1,0,1.6,0.4,1.8,1.4l5.4,18.8c0.5,1.8,0.5,3.1,0,3.9c-0.7,1.1-2.3,1.3-4.5,1.4l-0.3,0v1.1l0.3,0c6.1-0.2,13-0.2,19.1,0l0.3,0v-1.1
		l-0.3,0C261.2,49.4,259.2,47.9,258,44.1z M238.3,21.1l2.9-9.5l2.7,9.5c0.1,0.5,0.1,1-0.1,1.3c-0.2,0.3-0.6,0.5-1.2,0.5h-3
		c-0.5,0-0.9-0.2-1.2-0.5C238.3,22.1,238.2,21.6,238.3,21.1z"/>
	<path class="st0" d="M295.3,2.1l-0.3,0v1.1h0.3c7.4,0,8.7,4,8.7,26.9c0,16.1-9,18.5-14.4,18.5c-11.4,0-12.8-11.1-12.8-19.4V14
		c0-9.7,1.1-10.8,5.8-11l0.3,0V1.9l-0.3,0c-2.7,0.1-6.6,0.1-8,0.1H272c-1.5,0-5.3,0-8-0.1l-0.3,0V3l0.3,0c4.7,0.2,5.8,1.2,5.8,11
		v18.3c0,16.4,10.5,18.9,16.8,18.9c5.7,0,18.9-2,18.9-20.5c0-21.9,0.3-27.6,6.5-27.6h0.3V2.1l-0.3,0C304,2.2,302.9,2.2,295.3,2.1z"
		/>
	<path class="st0" d="M357.6,1c-15.7,0-25.9,9.9-25.9,25.1c0,15,10.7,25.1,26.5,25.1c15.5,0,25.9-10.1,25.9-25.1
		C384.1,11.1,373.4,1,357.6,1z M339.1,26.4c0-14.5,7.6-24.3,18.8-24.3c11.2,0,18.7,9.5,18.7,23.7c0,14.5-7.6,24.3-18.9,24.3
		C346.6,50.1,339.1,40.6,339.1,26.4z"/>
	<path class="st0" d="M426.6,44.6l-9.3-19.2c6.9-1.9,11-6.6,11-12.5c0-7.2-5.9-10.9-17.4-10.9H397c-1.5,0-5.3,0-8-0.1l-0.3,0V3
		l0.3,0c4.7,0.2,5.8,1.2,5.8,11v24.6c0,9.7-1.1,10.8-5.8,11l-0.3,0v1.1l0.3,0c2.7-0.1,6.6-0.1,8-0.1h2.5c1.5,0,5.3,0,8,0.1l0.3,0
		v-1.1l-0.3,0c-4.7-0.2-5.8-1.2-5.8-11v-9.7c0-1.7,0.9-2.6,2.6-2.6h5.5l9.1,18.8c0.7,1.5,1.1,2.6,0.7,3.2c-0.4,0.7-2.1,1-5.3,1.2
		l-0.3,0v1.1l0.3,0c5.1-0.1,16.1-0.1,19.7,0l0.3,0v-1.1l-0.3,0C430.6,49.4,428.4,48.5,426.6,44.6z M401.8,5.7c0-0.6,0-1,0.4-1.4
		c0.7-0.7,2.4-1,5.3-1c9,0,13.4,3.3,13.4,10c0,2-0.5,11.8-11.2,11.8h-5.2c-1.7,0-2.6-0.9-2.6-2.6V5.9L401.8,5.7z"/>
	<path class="st0" d="M470.2,33.2c-1.1,13.1-4.5,16.1-18.3,16.1c-2.5,0-3.1-0.4-3.1-3.5V14c0-9.7,1.1-10.8,5.8-11l0.3,0V1.9l-0.3,0
		c-2.7,0.1-6.6,0.1-8,0.1h-2.5c-1.5,0-5.3,0-8-0.1l-0.3,0V3l0.3,0c4.7,0.2,5.8,1.2,5.8,11v24.6c0,9.7-1.1,10.8-5.8,11l-0.3,0v1.1
		l0.3,0c2.7-0.1,6.6-0.1,8-0.1c8.9,0,18,0.1,27,0.2l0.3,0V32.9h-1.1L470.2,33.2z"/>
	<path class="st0" d="M486.2,2.1h-2.5c-1.5,0-5.3,0-8-0.1l-0.3,0v1.1l0.3,0c4.7,0.2,5.8,1.2,5.8,11v24.6c0,9.7-1.1,10.8-5.8,11
		l-0.3,0v1.1l0.3,0c2.7-0.1,6.6-0.1,8-0.1h2.5c1.5,0,5.3,0,8,0.1l0.3,0v-1.1l-0.3,0c-4.7-0.2-5.8-1.2-5.8-11V14.1
		c0-9.7,1.1-10.8,5.8-11l0.3,0V2l-0.3,0C491.6,2.1,487.7,2.1,486.2,2.1z"/>
	<path class="st0" d="M543.7,36.5c-2,4.7-7,12.5-18.1,12.5c-12,0-18.9-8.5-18.9-23.3c0-14.3,6.7-23.5,17.2-23.5
		c12.6,0,15.9,10.4,17.4,19.5l0,0.3l1.1-0.1l0-0.3c-0.7-8.4-0.7-14.3,0.2-19.9l0-0.3l-1.1-0.1l-0.1,0.2c-0.4,1.5-1.2,3.4-2.3,3.4
		c-0.5,0-1.3-0.4-2.3-0.9c-2.3-1.1-6.1-3-12.3-3c-12.7,0-25.5,8.7-25.5,25.4c0,14.6,10,24.9,24.2,24.9c9.9,0,17.2-4.9,21.2-14.3
		l0.1-0.2l-0.8-0.5L543.7,36.5z"/>
	<path class="st0" d="M583.7,34.5l0,0.3c-0.6,10.9-5,14.6-17.4,14.6c-4.7,0-4.7-0.1-4.7-3.4V29.3c0-3.5,0.4-3.6,4.3-3.6
		c7.8,0,10.9,2.8,11.4,10.2l0,0.3h1.1V13.9h-1.1l0,0.3c-0.5,7.3-3.8,10.3-11.4,10.3c-4,0-4.3-0.2-4.3-3.6V6.9c0-3,0.5-3.6,5.7-3.6
		c11.4,0,15.2,3.1,15.7,12.6l0,0.3h1.1V2.1h-27.3c-1.5,0-5.3,0-8-0.1l-0.3,0V3l0.3,0c4.7,0.2,5.8,1.2,5.8,11v24.6
		c0,9.7-1.1,10.8-5.8,11l-0.3,0v1.1l0.3,0c2.7-0.1,6.6-0.1,8-0.1c14.8,0,20.9,0,27.7,0.1l0.3,0V34.5H583.7z"/>
</g>
<g>
	<rect x="1" y="82.2" class="st1" width="19" height="0.7"/>
	<rect x="565.8" y="82.2" class="st1" width="19" height="0.7"/>
	<g>
		<g>
			<g>
				<path class="st0" d="M36.6,88.2c0.2-0.2,0.4-0.4,0.5-0.6c0.1-0.3,0.1-0.6,0.1-1.1v-8.1c0-0.5,0-0.8-0.1-1.1
					c-0.1-0.3-0.2-0.5-0.5-0.6c-0.2-0.2-0.6-0.3-1.2-0.4v-0.2h6.2c1.4,0,2.6,0.2,3.6,0.7c1,0.5,1.8,1.2,2.3,2.1
					c0.5,0.9,0.8,2.1,0.8,3.4c0,1.3-0.3,2.5-0.9,3.5c-0.6,1-1.4,1.7-2.5,2.2c-1.1,0.5-2.4,0.8-3.8,0.8h-5.7v-0.2
					C36,88.5,36.4,88.4,36.6,88.2z M43.6,87.4c0.7-0.5,1.1-1.1,1.5-2s0.5-1.8,0.5-2.9c0-1.1-0.2-2.1-0.5-3s-0.8-1.6-1.5-2
					c-0.7-0.5-1.5-0.7-2.4-0.7h-1.3v11.3h1.3C42.1,88.2,42.9,87.9,43.6,87.4z"/>
				<path class="st0" d="M56.3,79c0.6-1,1.4-1.8,2.4-2.4c1-0.6,2.2-0.9,3.6-0.9c1.3,0,2.5,0.3,3.5,0.8c1,0.6,1.8,1.3,2.4,2.3
					c0.6,1,0.8,2.2,0.8,3.5c0,1.3-0.3,2.5-0.9,3.6c-0.6,1-1.4,1.8-2.4,2.4c-1,0.6-2.2,0.9-3.6,0.9c-1.3,0-2.5-0.3-3.5-0.8
					c-1-0.6-1.8-1.3-2.4-2.3c-0.6-1-0.9-2.1-0.9-3.5C55.5,81.3,55.8,80.1,56.3,79z M64.5,87.9c0.6-0.5,1-1.2,1.3-2.1
					c0.3-0.9,0.4-2,0.4-3.3c0-1.3-0.2-2.4-0.5-3.4c-0.3-0.9-0.8-1.6-1.4-2.1c-0.6-0.5-1.3-0.7-2.2-0.7c-0.8,0-1.6,0.2-2.1,0.7
					c-0.6,0.5-1,1.2-1.3,2.1c-0.3,0.9-0.4,2-0.4,3.3c0,1.3,0.2,2.4,0.5,3.3s0.8,1.6,1.4,2.1c0.6,0.5,1.3,0.7,2.2,0.7
					C63.2,88.6,63.9,88.4,64.5,87.9z"/>
				<path class="st0" d="M79.3,88.2c0.3-0.2,0.4-0.4,0.5-0.6c0.1-0.3,0.1-0.6,0.1-1.1v-9.7h-1c-0.5,0-1,0.2-1.4,0.5
					c-0.4,0.3-0.8,0.7-1,1.2c-0.3,0.5-0.5,1.2-0.6,2h-0.1v-4.3h11.2v4.3h-0.2c-0.1-0.8-0.3-1.4-0.6-2c-0.3-0.5-0.6-1-1.1-1.3
					c-0.4-0.3-0.9-0.4-1.5-0.4h-1v9.7c0,0.5,0,0.8,0.1,1.1c0.1,0.3,0.2,0.5,0.5,0.6c0.2,0.2,0.7,0.3,1.3,0.4v0.2h-6.4v-0.2
					C78.7,88.5,79.1,88.4,79.3,88.2z"/>
				<path class="st0" d="M102.3,87.7c0.5-0.3,0.9-0.7,1.2-1.3c0.3-0.6,0.6-1.2,0.8-1.9h0.1l-0.4,4.3H93.4v-0.2
					c0.5-0.1,0.9-0.3,1.2-0.4c0.2-0.2,0.4-0.4,0.5-0.6c0.1-0.3,0.1-0.6,0.1-1.1v-8.1c0-0.5,0-0.8-0.1-1.1c-0.1-0.3-0.2-0.5-0.5-0.6
					c-0.2-0.2-0.6-0.3-1.1-0.4v-0.2H104v4.3h-0.1c-0.1-0.8-0.3-1.4-0.6-1.9c-0.3-0.5-0.6-0.9-1.1-1.2c-0.5-0.3-1-0.4-1.6-0.4h-2.9
					V82h1.8c0.5,0,1-0.1,1.4-0.2c0.4-0.2,0.7-0.4,0.9-0.8c0.2-0.3,0.4-0.8,0.5-1.3h0.2V85h-0.2c-0.1-0.5-0.2-1-0.5-1.3
					c-0.2-0.3-0.5-0.6-0.9-0.8c-0.4-0.2-0.8-0.2-1.4-0.2h-1.8v5.5h3C101.3,88.2,101.9,88,102.3,87.7z"/>
				<path class="st0" d="M112.2,88.2c0.2-0.2,0.4-0.4,0.5-0.6c0.1-0.3,0.1-0.6,0.1-1.1v-8.1c0-0.5,0-0.8-0.1-1.1
					c-0.1-0.3-0.2-0.5-0.5-0.6c-0.2-0.2-0.6-0.3-1.2-0.4v-0.2h6.1v0.2c-0.6,0.1-1,0.3-1.2,0.4c-0.2,0.2-0.4,0.4-0.4,0.6
					c-0.1,0.3-0.1,0.6-0.1,1.1v8.1c0,0.5,0,0.8,0.1,1.1c0.1,0.3,0.2,0.5,0.4,0.6c0.2,0.2,0.6,0.3,1.2,0.4v0.2h-6.1v-0.2
					C111.6,88.5,112,88.4,112.2,88.2z M115.9,82.3l4.2-4.2c0.3-0.3,0.4-0.5,0.5-0.8c0-0.3-0.1-0.5-0.4-0.7c-0.3-0.2-0.7-0.3-1.3-0.4
					v-0.1h5.6v0.2c-0.6,0.1-1.2,0.3-1.7,0.6c-0.5,0.3-1.1,0.7-1.7,1.3l-2.9,2.9l4.2,5.9c0.3,0.4,0.5,0.7,0.7,0.9
					c0.2,0.2,0.4,0.4,0.6,0.5c0.2,0.1,0.5,0.2,0.9,0.3v0.2h-4.1L115.9,82.3z"/>
				<path class="st0" d="M144.7,87.6c0.1,0.3,0.3,0.5,0.5,0.6c0.3,0.2,0.7,0.3,1.4,0.4v0.2h-6.4v-0.2c0.5-0.1,0.9-0.3,1.1-0.4
					c0.2-0.2,0.4-0.4,0.5-0.6c0.1-0.3,0.1-0.6,0.1-1.1v-8.1c0-0.5,0-0.8-0.1-1.1c-0.1-0.3-0.2-0.5-0.5-0.6c-0.2-0.2-0.6-0.3-1.1-0.4
					v-0.2h6.4v0.2c-0.7,0.1-1.1,0.3-1.4,0.4c-0.3,0.2-0.4,0.4-0.5,0.6c-0.1,0.3-0.1,0.6-0.1,1.1V82h6.4v-3.5c0-0.5,0-0.8-0.1-1.1
					c-0.1-0.3-0.3-0.5-0.5-0.6c-0.3-0.2-0.7-0.3-1.4-0.4v-0.2h6.5v0.2c-0.6,0.1-1,0.3-1.2,0.4c-0.2,0.2-0.4,0.4-0.5,0.6
					c-0.1,0.3-0.1,0.6-0.1,1.1v8.1c0,0.5,0,0.8,0.1,1.1c0.1,0.3,0.2,0.5,0.5,0.6c0.2,0.2,0.6,0.3,1.2,0.4v0.2h-6.5v-0.2
					c0.7-0.1,1.1-0.3,1.4-0.4c0.3-0.2,0.4-0.4,0.5-0.6c0.1-0.3,0.1-0.6,0.1-1.1v-3.8h-6.4v3.8C144.5,87,144.6,87.3,144.7,87.6z"/>
				<path class="st0" d="M163.1,88.2c0.2-0.2,0.4-0.4,0.5-0.6c0.1-0.3,0.1-0.6,0.1-1.1v-8.1c0-0.5,0-0.8-0.1-1.1
					c-0.1-0.3-0.2-0.5-0.5-0.6c-0.2-0.2-0.6-0.3-1.2-0.4v-0.2h6.1v0.2c-0.6,0.1-1,0.3-1.2,0.4c-0.2,0.2-0.4,0.4-0.4,0.6
					c-0.1,0.3-0.1,0.6-0.1,1.1v8.1c0,0.5,0,0.8,0.1,1.1c0.1,0.3,0.2,0.5,0.4,0.6c0.2,0.2,0.6,0.3,1.2,0.4v0.2h-6.1v-0.2
					C162.5,88.5,162.8,88.4,163.1,88.2z"/>
				<path class="st0" d="M175.1,84h0.2c0.2,1.1,0.5,2,1,2.6c0.4,0.7,1,1.2,1.6,1.5c0.6,0.3,1.3,0.5,2.1,0.5c0.7,0,1.3-0.2,1.7-0.5
					c0.4-0.3,0.6-0.8,0.6-1.2c0-0.4-0.1-0.8-0.3-1.1c-0.2-0.3-0.6-0.6-1-1c-0.5-0.3-1.2-0.7-2.1-1.1c-1-0.5-1.8-0.9-2.4-1.3
					c-0.6-0.4-1-0.8-1.3-1.3c-0.3-0.5-0.4-1-0.4-1.6c0-0.8,0.2-1.4,0.6-2c0.4-0.6,1-1,1.7-1.3c0.7-0.3,1.6-0.4,2.6-0.4
					c0.8,0,1.6,0.1,2.4,0.2c0.7,0.1,1.4,0.3,2.1,0.5l-0.7,4.3h-0.2c-0.2-1-0.5-1.9-0.9-2.5c-0.4-0.6-0.9-1.1-1.5-1.4
					c-0.6-0.3-1.2-0.4-1.9-0.4c-0.6,0-1.1,0.2-1.5,0.5c-0.4,0.3-0.6,0.8-0.6,1.3c0,0.4,0.1,0.8,0.3,1.1c0.2,0.3,0.6,0.6,1,1
					c0.5,0.3,1.2,0.7,2,1c1.1,0.5,1.9,0.9,2.5,1.3c0.6,0.4,1,0.8,1.3,1.3c0.3,0.4,0.4,1,0.4,1.6c0,0.8-0.2,1.4-0.6,2
					c-0.4,0.6-1,1-1.8,1.3c-0.8,0.3-1.6,0.5-2.6,0.5c-0.8,0-1.6-0.1-2.4-0.3c-0.8-0.2-1.5-0.4-2.2-0.7L175.1,84z"/>
				<path class="st0" d="M194.8,88.2c0.3-0.2,0.4-0.4,0.5-0.6c0.1-0.3,0.1-0.6,0.1-1.1v-9.7h-1c-0.5,0-1,0.2-1.4,0.5
					c-0.4,0.3-0.8,0.7-1,1.2c-0.3,0.5-0.5,1.2-0.6,2h-0.1v-4.3h11.2v4.3h-0.2c-0.1-0.8-0.3-1.4-0.6-2c-0.3-0.5-0.6-1-1.1-1.3
					c-0.4-0.3-0.9-0.4-1.5-0.4h-1v9.7c0,0.5,0,0.8,0.1,1.1c0.1,0.3,0.2,0.5,0.5,0.6c0.2,0.2,0.7,0.3,1.3,0.4v0.2h-6.4v-0.2
					C194.1,88.5,194.6,88.4,194.8,88.2z"/>
				<path class="st0" d="M209.8,79c0.6-1,1.4-1.8,2.4-2.4c1-0.6,2.2-0.9,3.6-0.9s2.5,0.3,3.5,0.8c1,0.6,1.8,1.3,2.4,2.3
					c0.6,1,0.8,2.2,0.8,3.5c0,1.3-0.3,2.5-0.9,3.6s-1.4,1.8-2.4,2.4c-1,0.6-2.2,0.9-3.6,0.9c-1.3,0-2.5-0.3-3.5-0.8
					c-1-0.6-1.8-1.3-2.4-2.3c-0.6-1-0.9-2.1-0.9-3.5C208.9,81.3,209.2,80.1,209.8,79z M217.9,87.9c0.6-0.5,1-1.2,1.3-2.1
					c0.3-0.9,0.4-2,0.4-3.3c0-1.3-0.2-2.4-0.5-3.4c-0.3-0.9-0.8-1.6-1.4-2.1c-0.6-0.5-1.3-0.7-2.2-0.7c-0.8,0-1.6,0.2-2.1,0.7
					c-0.6,0.5-1,1.2-1.3,2.1c-0.3,0.9-0.4,2-0.4,3.3c0,1.3,0.2,2.4,0.5,3.3s0.8,1.6,1.4,2.1c0.6,0.5,1.3,0.7,2.2,0.7
					C216.6,88.6,217.4,88.4,217.9,87.9z"/>
				<path class="st0" d="M230,88.2c0.2-0.2,0.4-0.4,0.5-0.6c0.1-0.3,0.1-0.6,0.1-1.1v-8.1c0-0.5,0-0.8-0.1-1.1
					c-0.1-0.3-0.2-0.5-0.5-0.6c-0.2-0.2-0.6-0.3-1.2-0.4v-0.2h5.9c1.7,0,3,0.3,4,0.9c0.9,0.6,1.4,1.4,1.4,2.5c0,0.8-0.3,1.5-0.9,2
					c-0.6,0.6-1.3,0.9-2.2,1.1l2.3,3.7c0.1,0.2,0.2,0.4,0.3,0.5c0.3,0.5,0.7,0.9,1,1.2c0.3,0.3,0.7,0.4,1.2,0.6v0.2h-4l-3.5-5.7h-1
					v3.4c0,0.5,0,0.8,0.1,1.1c0.1,0.3,0.2,0.5,0.4,0.6c0.2,0.2,0.6,0.3,1.2,0.4v0.2h-6.1v-0.2C229.4,88.5,229.8,88.4,230,88.2z
					 M236.5,81.7c0.5-0.5,0.7-1.1,0.7-2c0-0.9-0.3-1.6-0.8-2.1c-0.5-0.5-1.2-0.8-2.1-0.8h-1.1v5.6h1.3
					C235.4,82.4,236.1,82.2,236.5,81.7z"/>
				<path class="st0" d="M249.1,88.2c0.2-0.2,0.4-0.4,0.5-0.6c0.1-0.3,0.1-0.6,0.1-1.1v-8.1c0-0.5,0-0.8-0.1-1.1
					c-0.1-0.3-0.2-0.5-0.5-0.6c-0.2-0.2-0.6-0.3-1.2-0.4v-0.2h6.1v0.2c-0.6,0.1-1,0.3-1.2,0.4c-0.2,0.2-0.4,0.4-0.4,0.6
					c-0.1,0.3-0.1,0.6-0.1,1.1v8.1c0,0.5,0,0.8,0.1,1.1c0.1,0.3,0.2,0.5,0.4,0.6c0.2,0.2,0.6,0.3,1.2,0.4v0.2H248v-0.2
					C248.5,88.5,248.9,88.4,249.1,88.2z"/>
				<path class="st0" d="M269.7,87.7c0.5-0.3,0.9-0.7,1.2-1.3c0.3-0.6,0.6-1.2,0.8-1.9h0.1l-0.4,4.3h-10.7v-0.2
					c0.5-0.1,0.9-0.3,1.2-0.4c0.2-0.2,0.4-0.4,0.5-0.6c0.1-0.3,0.1-0.6,0.1-1.1v-8.1c0-0.5,0-0.8-0.1-1.1c-0.1-0.3-0.2-0.5-0.5-0.6
					c-0.2-0.2-0.6-0.3-1.1-0.4v-0.2h10.6v4.3h-0.1c-0.1-0.8-0.3-1.4-0.6-1.9c-0.3-0.5-0.6-0.9-1.1-1.2c-0.5-0.3-1-0.4-1.6-0.4h-2.9
					V82h1.8c0.5,0,1-0.1,1.4-0.2c0.4-0.2,0.7-0.4,0.9-0.8c0.2-0.3,0.4-0.8,0.5-1.3h0.2V85h-0.2c-0.1-0.5-0.2-1-0.5-1.3
					c-0.2-0.3-0.5-0.6-0.9-0.8c-0.4-0.2-0.8-0.2-1.4-0.2h-1.8v5.5h3C268.7,88.2,269.2,88,269.7,87.7z"/>
			</g>
		</g>
		<g>
			<g>
				<path class="st0" d="M321.5,87.8c0.4-0.3,0.8-0.7,1.1-1.2c0.3-0.5,0.6-1.3,0.9-2.2h0.2l-0.4,4.5h-9.8v-0.1l6.8-11.9h-3
					c-0.6,0-1.1,0.1-1.5,0.4c-0.4,0.2-0.7,0.6-1,1.1c-0.3,0.5-0.5,1.3-0.7,2.2H314v-4.4h9.5v0.1l-6.8,11.9h3.3
					C320.6,88.2,321.1,88,321.5,87.8z"/>
				<path class="st0" d="M330.9,88.3c0.3-0.2,0.5-0.5,0.8-0.8c0.2-0.3,0.4-0.8,0.6-1.3l3.3-8.8c-0.2-0.3-0.4-0.7-0.8-1.2v0h3.1
					l4.2,10.3c0.2,0.5,0.4,0.9,0.6,1.2c0.1,0.3,0.3,0.5,0.6,0.7c0.2,0.2,0.5,0.3,0.9,0.4v0.2H338v-0.2c0.5-0.1,0.9-0.2,1.2-0.4
					c0.2-0.2,0.3-0.4,0.3-0.7c0-0.3-0.1-0.7-0.3-1.1l-0.7-1.7h-4.8l-0.6,1.5c-0.2,0.5-0.2,0.9-0.2,1.2c0,0.3,0.2,0.6,0.4,0.8
					c0.3,0.2,0.7,0.4,1.2,0.5v0.2h-4.8v-0.2C330.2,88.6,330.6,88.4,330.9,88.3z M338.3,84l-2.2-5.6L334,84H338.3z M335.3,75.4
					l-0.1-0.1l3.3-4.4l1.5,1.9L335.3,75.4z"/>
				<path class="st0" d="M358.4,87.8c0.4-0.3,0.8-0.7,1.1-1.2c0.3-0.5,0.6-1.3,0.9-2.2h0.2l-0.4,4.5h-9.8v-0.1l6.8-11.9h-3
					c-0.6,0-1.1,0.1-1.5,0.4c-0.4,0.2-0.7,0.6-1,1.1c-0.3,0.5-0.5,1.3-0.7,2.2h-0.1v-4.4h9.5v0.1l-6.8,11.9h3.3
					C357.5,88.2,358,88,358.4,87.8z M352.5,70.9l-0.1,0.1l3.3,4.2h0.1l3.3-4.3l-0.1-0.1l-3.3,1.9L352.5,70.9z"/>
				<path class="st0" d="M368.4,88.2c0.2-0.2,0.4-0.4,0.5-0.6c0.1-0.3,0.1-0.6,0.1-1.1v-8.1c0-0.5,0-0.8-0.1-1.1
					c-0.1-0.3-0.2-0.5-0.5-0.6c-0.2-0.2-0.6-0.3-1.2-0.4v-0.2h6.1v0.2c-0.6,0.1-1,0.3-1.2,0.4c-0.2,0.2-0.4,0.4-0.4,0.6
					c-0.1,0.3-0.1,0.6-0.1,1.1v8.1c0,0.5,0,0.8,0.1,1.1c0.1,0.3,0.2,0.5,0.4,0.6c0.2,0.2,0.6,0.3,1.2,0.4v0.2h-6.1v-0.2
					C367.8,88.5,368.1,88.4,368.4,88.2z"/>
				<path class="st0" d="M383.4,88.2c0.3-0.2,0.4-0.4,0.5-0.6c0.1-0.3,0.1-0.6,0.1-1.1v-9.7h-1c-0.5,0-1,0.2-1.4,0.5
					c-0.4,0.3-0.8,0.7-1,1.2c-0.3,0.5-0.5,1.2-0.6,2h-0.1v-4.3H391v4.3h-0.2c-0.1-0.8-0.3-1.4-0.6-2c-0.3-0.5-0.6-1-1.1-1.3
					s-0.9-0.4-1.5-0.4h-1v9.7c0,0.5,0,0.8,0.1,1.1c0.1,0.3,0.2,0.5,0.5,0.6c0.2,0.2,0.7,0.3,1.3,0.4v0.2h-6.4v-0.2
					C382.7,88.5,383.2,88.4,383.4,88.2z"/>
				<path class="st0" d="M406.4,87.7c0.5-0.3,0.9-0.7,1.2-1.3c0.3-0.6,0.6-1.2,0.8-1.9h0.1l-0.4,4.3h-10.7v-0.2
					c0.5-0.1,0.9-0.3,1.2-0.4c0.2-0.2,0.4-0.4,0.5-0.6c0.1-0.3,0.1-0.6,0.1-1.1v-8.1c0-0.5,0-0.8-0.1-1.1c-0.1-0.3-0.2-0.5-0.5-0.6
					c-0.2-0.2-0.6-0.3-1.1-0.4v-0.2h10.6v4.3h-0.1c-0.1-0.8-0.3-1.4-0.6-1.9c-0.3-0.5-0.6-0.9-1.1-1.2c-0.5-0.3-1-0.4-1.6-0.4h-2.9
					V82h1.8c0.5,0,1-0.1,1.4-0.2c0.4-0.2,0.7-0.4,0.9-0.8c0.2-0.3,0.4-0.8,0.5-1.3h0.2V85h-0.2c-0.1-0.5-0.2-1-0.5-1.3
					c-0.2-0.3-0.5-0.6-0.9-0.8c-0.4-0.2-0.8-0.2-1.4-0.2h-1.8v5.5h3C405.4,88.2,405.9,88,406.4,87.7z"/>
				<path class="st0" d="M416.3,88.2c0.2-0.2,0.4-0.4,0.5-0.6c0.1-0.3,0.1-0.6,0.1-1.1v-8.1c0-0.5,0-0.8-0.1-1.1
					c-0.1-0.3-0.2-0.5-0.5-0.6c-0.2-0.2-0.6-0.3-1.2-0.4v-0.2h6.1v0.2c-0.6,0.1-1,0.3-1.2,0.4c-0.2,0.2-0.4,0.4-0.4,0.6
					c-0.1,0.3-0.1,0.6-0.1,1.1v8.1c0,0.5,0,0.8,0.1,1.1c0.1,0.3,0.2,0.5,0.4,0.6c0.2,0.2,0.6,0.3,1.2,0.4v0.2h-6.1v-0.2
					C415.7,88.5,416.1,88.4,416.3,88.2z M419.9,82.3l4.2-4.2c0.3-0.3,0.4-0.5,0.5-0.8c0-0.3-0.1-0.5-0.4-0.7s-0.7-0.3-1.3-0.4v-0.1
					h5.6v0.2c-0.6,0.1-1.2,0.3-1.7,0.6c-0.5,0.3-1.1,0.7-1.7,1.3l-2.9,2.9l4.2,5.9c0.3,0.4,0.5,0.7,0.7,0.9c0.2,0.2,0.4,0.4,0.6,0.5
					c0.2,0.1,0.5,0.2,0.9,0.3v0.2h-4.1L419.9,82.3z"/>
				<path class="st0" d="M452.5,87.7c0.5-0.3,0.9-0.8,1.2-1.3c0.3-0.6,0.6-1.3,0.7-2h0.2l-0.4,4.5h-10.1v-0.2
					c0.5-0.1,0.9-0.3,1.1-0.4c0.2-0.2,0.4-0.4,0.5-0.6c0.1-0.3,0.1-0.6,0.1-1.1v-8.1c0-0.5,0-0.8-0.1-1.1c-0.1-0.3-0.2-0.5-0.5-0.6
					c-0.2-0.2-0.6-0.3-1.1-0.4v-0.2h6.4v0.2c-0.7,0.1-1.1,0.3-1.4,0.4c-0.3,0.2-0.4,0.4-0.5,0.6c-0.1,0.3-0.1,0.6-0.1,1.1v9.7h2.3
					C451.5,88.2,452.1,88,452.5,87.7z"/>
				<path class="st0" d="M462,77.4c-0.1-0.3-0.2-0.5-0.5-0.6c-0.2-0.2-0.6-0.3-1.1-0.4v-0.2h6.2v0.2c-0.6,0.1-1,0.3-1.2,0.4
					c-0.2,0.2-0.4,0.4-0.5,0.6c-0.1,0.3-0.1,0.6-0.1,1.1v5.8c0,1.4,0.3,2.5,0.8,3.2c0.6,0.7,1.4,1,2.4,1c1.2,0,2.1-0.4,2.8-1.1
					c0.6-0.7,1-1.8,1-3.2v-5.6c0-0.5,0-0.9-0.1-1.1c-0.1-0.3-0.3-0.5-0.5-0.7c-0.3-0.2-0.7-0.4-1.4-0.5v-0.2h4.5v0.2
					c-0.5,0.1-0.9,0.3-1.1,0.5c-0.2,0.2-0.4,0.4-0.4,0.7c-0.1,0.3-0.1,0.7-0.1,1.1v5.7c0,1.6-0.4,2.8-1.3,3.6
					c-0.9,0.9-2.1,1.3-3.6,1.3c-1.8,0-3.2-0.4-4.1-1.3c-1-0.8-1.5-2-1.5-3.5v-6C462.1,78,462.1,77.6,462,77.4z"/>
				<path class="st0" d="M481.5,88.3c0.3-0.2,0.7-0.4,1-0.7c0.3-0.3,0.7-0.7,1.1-1.3l2.5-3.4l-2.8-4.2c-0.3-0.5-0.6-0.9-0.9-1.2
					c-0.3-0.3-0.6-0.5-0.9-0.7c-0.3-0.2-0.7-0.3-1.1-0.4v-0.2h6.8v0.2c-0.6,0.1-1.1,0.2-1.3,0.4c-0.2,0.1-0.3,0.3-0.3,0.6
					c0,0.3,0.2,0.7,0.6,1.2l1.8,2.8l1.9-2.5c0.4-0.5,0.6-1,0.7-1.3c0.1-0.3-0.1-0.6-0.3-0.8s-0.7-0.3-1.4-0.4v-0.2h5.2v0.2
					c-0.5,0.1-1,0.4-1.6,0.8s-1.1,1-1.6,1.8l-2.3,3.1l2.8,4.3c0.3,0.5,0.6,0.9,1,1.2c0.3,0.3,0.6,0.5,0.9,0.7
					c0.3,0.2,0.7,0.3,1.1,0.4v0.2h-6.9v-0.2c0.6-0.1,1-0.2,1.2-0.4c0.2-0.1,0.3-0.4,0.3-0.6c0-0.3-0.2-0.7-0.5-1.2l-1.8-2.9l-2,2.8
					c-0.3,0.5-0.5,0.9-0.6,1.2c0,0.3,0.1,0.5,0.3,0.7c0.3,0.2,0.7,0.3,1.4,0.4v0.2h-5.3v-0.2C480.7,88.6,481.1,88.4,481.5,88.3z"/>
				<path class="st0" d="M501.7,77.4c-0.1-0.3-0.2-0.5-0.5-0.6c-0.2-0.2-0.6-0.3-1.1-0.4v-0.2h6.2v0.2c-0.6,0.1-1,0.3-1.2,0.4
					c-0.2,0.2-0.4,0.4-0.5,0.6c-0.1,0.3-0.1,0.6-0.1,1.1v5.8c0,1.4,0.3,2.5,0.8,3.2s1.4,1,2.4,1c1.2,0,2.1-0.4,2.8-1.1
					c0.6-0.7,1-1.8,1-3.2v-5.6c0-0.5,0-0.9-0.1-1.1c-0.1-0.3-0.3-0.5-0.5-0.7c-0.3-0.2-0.7-0.4-1.4-0.5v-0.2h4.5v0.2
					c-0.5,0.1-0.9,0.3-1.1,0.5c-0.2,0.2-0.4,0.4-0.4,0.7c-0.1,0.3-0.1,0.7-0.1,1.1v5.7c0,1.6-0.4,2.8-1.3,3.6
					c-0.9,0.9-2.1,1.3-3.6,1.3c-1.8,0-3.2-0.4-4.1-1.3c-1-0.8-1.5-2-1.5-3.5v-6C501.8,78,501.8,77.6,501.7,77.4z"/>
				<path class="st0" d="M520.8,84h0.2c0.2,1.1,0.5,2,1,2.6c0.4,0.7,1,1.2,1.6,1.5c0.6,0.3,1.3,0.5,2.1,0.5c0.7,0,1.3-0.2,1.7-0.5
					c0.4-0.3,0.6-0.8,0.6-1.2c0-0.4-0.1-0.8-0.3-1.1c-0.2-0.3-0.6-0.6-1-1c-0.5-0.3-1.2-0.7-2.1-1.1c-1-0.5-1.8-0.9-2.4-1.3
					c-0.6-0.4-1-0.8-1.3-1.3s-0.4-1-0.4-1.6c0-0.8,0.2-1.4,0.6-2c0.4-0.6,1-1,1.7-1.3c0.7-0.3,1.6-0.4,2.6-0.4
					c0.8,0,1.6,0.1,2.4,0.2c0.7,0.1,1.4,0.3,2.1,0.5l-0.7,4.3h-0.2c-0.2-1-0.5-1.9-0.9-2.5c-0.4-0.6-0.9-1.1-1.5-1.4
					c-0.6-0.3-1.2-0.4-1.9-0.4c-0.6,0-1.1,0.2-1.5,0.5c-0.4,0.3-0.6,0.8-0.6,1.3c0,0.4,0.1,0.8,0.3,1.1c0.2,0.3,0.6,0.6,1,1
					c0.5,0.3,1.2,0.7,2,1c1.1,0.5,1.9,0.9,2.5,1.3c0.6,0.4,1,0.8,1.3,1.3c0.3,0.4,0.4,1,0.4,1.6c0,0.8-0.2,1.4-0.6,2s-1,1-1.8,1.3
					c-0.8,0.3-1.6,0.5-2.6,0.5c-0.8,0-1.6-0.1-2.4-0.3c-0.8-0.2-1.5-0.4-2.2-0.7L520.8,84z"/>
				<path class="st0" d="M538.1,77.4c-0.1-0.3-0.2-0.5-0.5-0.6c-0.2-0.2-0.6-0.3-1.1-0.4v-0.2h6.2v0.2c-0.6,0.1-1,0.3-1.2,0.4
					c-0.2,0.2-0.4,0.4-0.5,0.6c-0.1,0.3-0.1,0.6-0.1,1.1v5.8c0,1.4,0.3,2.5,0.8,3.2s1.4,1,2.4,1c1.2,0,2.1-0.4,2.8-1.1
					c0.6-0.7,1-1.8,1-3.2v-5.6c0-0.5,0-0.9-0.1-1.1c-0.1-0.3-0.3-0.5-0.5-0.7c-0.3-0.2-0.7-0.4-1.4-0.5v-0.2h4.5v0.2
					c-0.5,0.1-0.9,0.3-1.1,0.5c-0.2,0.2-0.4,0.4-0.4,0.7c-0.1,0.3-0.1,0.7-0.1,1.1v5.7c0,1.6-0.4,2.8-1.3,3.6
					c-0.9,0.9-2.1,1.3-3.6,1.3c-1.8,0-3.2-0.4-4.1-1.3c-1-0.8-1.5-2-1.5-3.5v-6C538.3,78,538.2,77.6,538.1,77.4z"/>
			</g>
		</g>
		<g>
			
				<rect x="286.7" y="78.9" transform="matrix(0.7071 0.7071 -0.7071 0.7071 143.3361 -181.0622)" class="st1" width="7.1" height="7.1"/>
			<path class="st1" d="M295.3,78.6l3.9,3.9l-3.9,3.9l-3.9-3.9L295.3,78.6 M295.3,77.5l-5,5l5,5l5-5L295.3,77.5L295.3,77.5z"/>
		</g>
	</g>
</g>
</svg>
