<svg width="17" height="17" viewBox="0 0 17 17" fill="none" xmlns="http://www.w3.org/2000/svg">
<path d="M6.38034 13.042L10.729 8.69336L6.38034 4.34469L2.03167 8.69336L6.38034 13.042Z" fill="#F0ECE1"/>
<path d="M10.7 4.33906L6.35005 8.68906L10.7 13.0391L15.05 8.68906L10.7 4.33906ZM10.7 5.28906L14.1 8.68906L10.7 12.0891L7.30005 8.68906L10.7 5.28906Z" fill="#F0ECE1"/>
<path d="M6.38034 13.042L10.729 8.69336L6.38034 4.34469L2.03167 8.69336L6.38034 13.042Z" fill="#F0ECE1"/>
<path d="M10.7 4.33906L6.35005 8.68906L10.7 13.0391L15.05 8.68906L10.7 4.33906ZM10.7 5.28906L14.1 8.68906L10.7 12.0891L7.30005 8.68906L10.7 5.28906Z" fill="#F0ECE1"/>
</svg>
