<svg width="17" height="16" viewBox="0 0 17 16" fill="none" xmlns="http://www.w3.org/2000/svg">
<path d="M10.6197 3.59665L6.271 7.94531L10.6197 12.294L14.9683 7.94531L10.6197 3.59665Z" fill="#B99663"/>
<path d="M6.30001 12.3L10.65 7.94998L6.30001 3.59998L1.95001 7.94998L6.30001 12.3ZM6.30001 11.35L2.90001 7.94998L6.30001 4.54998L9.70001 7.94998L6.30001 11.35Z" fill="#B99663"/>
<path d="M10.6197 3.59665L6.271 7.94531L10.6197 12.294L14.9683 7.94531L10.6197 3.59665Z" fill="#B99663"/>
<path d="M6.30001 12.3L10.65 7.94998L6.30001 3.59998L1.95001 7.94998L6.30001 12.3ZM6.30001 11.35L2.90001 7.94998L6.30001 4.54998L9.70001 7.94998L6.30001 11.35Z" fill="#B99663"/>
</svg>
