<svg width="20" height="20" viewBox="0 0 20 20" fill="none" xmlns="http://www.w3.org/2000/svg">
<path d="M1.6665 16.6666V9.99992C1.6665 9.55789 1.8421 9.13397 2.15466 8.82141C2.46722 8.50885 2.89114 8.33325 3.33317 8.33325H16.6665C17.1085 8.33325 17.5325 8.50885 17.845 8.82141C18.1576 9.13397 18.3332 9.55789 18.3332 9.99992V16.6666" stroke="#B99663" stroke-width="1.25" stroke-linecap="round" stroke-linejoin="round"/>
<path d="M3.3335 8.33325V4.99992C3.3335 4.55789 3.50909 4.13397 3.82165 3.82141C4.13421 3.50885 4.55814 3.33325 5.00016 3.33325H15.0002C15.4422 3.33325 15.8661 3.50885 16.1787 3.82141C16.4912 4.13397 16.6668 4.55789 16.6668 4.99992V8.33325" stroke="#B99663" stroke-width="1.25" stroke-linecap="round" stroke-linejoin="round"/>
<path d="M10 3.33325V8.33325" stroke="#B99663" stroke-width="1.25" stroke-linecap="round" stroke-linejoin="round"/>
<path d="M1.6665 15H18.3332" stroke="#B99663" stroke-width="1.25" stroke-linecap="round" stroke-linejoin="round"/>
</svg>
