<svg width="20" height="20" viewBox="0 0 20 20" fill="none" xmlns="http://www.w3.org/2000/svg">
<path d="M6 12.3335C6.44203 12.3335 6.86595 12.5091 7.17851 12.8217C7.49107 13.1342 7.66667 13.5581 7.66667 14.0002" stroke="#B99663" stroke-width="1.25" stroke-linecap="round" stroke-linejoin="round"/>
<path d="M15.4167 9.99984C17.0275 9.99984 18.3333 8.694 18.3333 7.08317C18.3333 5.47234 17.0275 4.1665 15.4167 4.1665C13.8058 4.1665 12.5 5.47234 12.5 7.08317C12.5 8.694 13.8058 9.99984 15.4167 9.99984Z" stroke="#B99663" stroke-width="1.25" stroke-linecap="round" stroke-linejoin="round"/>
<path d="M6.24984 18.3332C8.78114 18.3332 10.8332 16.2811 10.8332 13.7498C10.8332 11.2185 8.78114 9.1665 6.24984 9.1665C3.71853 9.1665 1.6665 11.2185 1.6665 13.7498C1.6665 16.2811 3.71853 18.3332 6.24984 18.3332Z" stroke="#B99663" stroke-width="1.25" stroke-linecap="round" stroke-linejoin="round"/>
<path d="M6.24984 5.83317C7.40043 5.83317 8.33317 4.90043 8.33317 3.74984C8.33317 2.59924 7.40043 1.6665 6.24984 1.6665C5.09924 1.6665 4.1665 2.59924 4.1665 3.74984C4.1665 4.90043 5.09924 5.83317 6.24984 5.83317Z" stroke="#B99663" stroke-width="1.25" stroke-linecap="round" stroke-linejoin="round"/>
</svg>
