<svg width="21" height="20" viewBox="0 0 21 20" fill="none" xmlns="http://www.w3.org/2000/svg">
<path d="M17.8775 0.417471C17.9079 0.493794 17.923 0.575371 17.9219 0.657534C17.9208 0.739697 17.9035 0.820834 17.871 0.896301C17.8385 0.971767 17.7914 1.04008 17.7325 1.09734C17.6735 1.15459 17.6039 1.19966 17.5275 1.22997L14.71 2.35747L14.21 4.76622C14.68 4.88497 15.1037 5.03497 15.425 5.22497C15.71 5.39372 16.125 5.71997 16.125 6.24997C16.125 6.30747 16.1204 6.36247 16.1112 6.41497L14.9088 17.75C14.8897 17.9795 14.8213 18.2021 14.7082 18.4028C14.5952 18.6034 14.4402 18.7773 14.2537 18.9125C13.6438 19.3375 12.3863 20 10.4913 20C8.59625 20 7.33875 19.3375 6.72875 18.9125C6.54235 18.7773 6.38733 18.6034 6.27428 18.4028C6.16124 18.2021 6.09284 17.9795 6.07375 17.75L4.8875 6.41497C4.87969 6.36031 4.87552 6.30519 4.875 6.24997C4.875 5.71997 5.29 5.39372 5.575 5.22497C5.9025 5.03247 6.33375 4.87997 6.8125 4.75997C7.78 4.51747 9.08375 4.37497 10.5 4.37497C11.39 4.37497 12.2362 4.43122 12.9812 4.53372L13.5613 1.76497C13.5833 1.66555 13.6294 1.57304 13.6954 1.49548C13.7614 1.41792 13.8454 1.35767 13.94 1.31997L17.065 0.069971C17.2188 0.00834543 17.3908 0.0103335 17.5432 0.0754981C17.6956 0.140663 17.8158 0.263669 17.8775 0.417471ZM12.71 5.75872C11.9769 5.66753 11.2388 5.62286 10.5 5.62497C9.155 5.62497 7.95875 5.76247 7.11625 5.97247C6.83736 6.03662 6.56589 6.12962 6.30625 6.24997C6.48875 6.34122 6.75875 6.43747 7.11625 6.52747C7.95875 6.73747 9.155 6.87497 10.5 6.87497C11.2137 6.87497 11.8863 6.83747 12.485 6.76872L12.71 5.75872ZM13.075 7.95372C12.3063 8.06247 11.4275 8.12497 10.5 8.12497C9.08375 8.12497 7.78 7.98247 6.8125 7.73997C6.62932 7.69392 6.44794 7.64097 6.26875 7.58122L7.31625 17.6187C7.3325 17.77 7.39125 17.8512 7.44375 17.8875C7.89 18.1987 8.90375 18.75 10.4913 18.75C12.0788 18.75 13.0925 18.1987 13.5387 17.8875C13.5912 17.8512 13.6512 17.77 13.6663 17.6187L14.7313 7.58122C14.5521 7.64097 14.3707 7.69392 14.1875 7.73997C13.8205 7.82944 13.4492 7.90161 13.075 7.95372ZM6.08375 6.10497C6.08375 6.10497 6.0875 6.10747 6.09 6.11247L6.08375 6.10497ZM14.6925 6.24997C14.4509 6.13582 14.1978 6.04782 13.9375 5.98747L13.8138 6.54372L13.8825 6.52747C14.24 6.43747 14.51 6.34122 14.6925 6.24997Z" fill="#B99663"/>
</svg>
