<svg width="21" height="20" viewBox="0 0 21 20" fill="none" xmlns="http://www.w3.org/2000/svg">
<g clip-path="url(#clip0_340_287)">
<path d="M1.75 1.875C1.75 1.37772 1.94754 0.900805 2.29917 0.549175C2.65081 0.197544 3.12772 0 3.625 0L18.625 0C19.1223 0 19.5992 0.197544 19.9508 0.549175C20.3025 0.900805 20.5 1.37772 20.5 1.875V18.125C20.5 18.6223 20.3025 19.0992 19.9508 19.4508C19.5992 19.8025 19.1223 20 18.625 20H3.625C3.12772 20 2.65081 19.8025 2.29917 19.4508C1.94754 19.0992 1.75 18.6223 1.75 18.125V16.25H1.125C0.95924 16.25 0.800269 16.1842 0.683058 16.0669C0.565848 15.9497 0.5 15.7908 0.5 15.625C0.5 15.4592 0.565848 15.3003 0.683058 15.1831C0.800269 15.0658 0.95924 15 1.125 15H1.75V10.625H1.125C0.95924 10.625 0.800269 10.5592 0.683058 10.4419C0.565848 10.3247 0.5 10.1658 0.5 10C0.5 9.83424 0.565848 9.67527 0.683058 9.55806C0.800269 9.44085 0.95924 9.375 1.125 9.375H1.75V5H1.125C0.95924 5 0.800269 4.93415 0.683058 4.81694C0.565848 4.69973 0.5 4.54076 0.5 4.375C0.5 4.20924 0.565848 4.05027 0.683058 3.93306C0.800269 3.81585 0.95924 3.75 1.125 3.75H1.75V1.875ZM3.625 1.25C3.45924 1.25 3.30027 1.31585 3.18306 1.43306C3.06585 1.55027 3 1.70924 3 1.875V18.125C3 18.2908 3.06585 18.4497 3.18306 18.5669C3.30027 18.6842 3.45924 18.75 3.625 18.75H18.625C18.7908 18.75 18.9497 18.6842 19.0669 18.5669C19.1842 18.4497 19.25 18.2908 19.25 18.125V1.875C19.25 1.70924 19.1842 1.55027 19.0669 1.43306C18.9497 1.31585 18.7908 1.25 18.625 1.25H3.625Z" fill="#B99663"/>
<path d="M17.3752 7.5001C17.5409 7.5001 17.6999 7.56595 17.8171 7.68316C17.9343 7.80037 18.0002 7.95934 18.0002 8.1251V11.8751C18.0002 12.0409 17.9343 12.1998 17.8171 12.317C17.6999 12.4343 17.5409 12.5001 17.3752 12.5001C17.2094 12.5001 17.0504 12.4343 16.9332 12.317C16.816 12.1998 16.7502 12.0409 16.7502 11.8751V8.1251C16.7502 7.95934 16.816 7.80037 16.9332 7.68316C17.0504 7.56595 17.2094 7.5001 17.3752 7.5001ZM6.53518 5.5801C6.59324 5.5219 6.66221 5.47572 6.73814 5.44421C6.81407 5.4127 6.89547 5.39648 6.97768 5.39648C7.05989 5.39648 7.14129 5.4127 7.21722 5.44421C7.29315 5.47572 7.36212 5.5219 7.42018 5.5801L8.78268 6.9426C9.4173 6.49154 10.1766 6.24919 10.9552 6.24919C11.7338 6.24919 12.4931 6.49154 13.1277 6.9426L14.4902 5.5801C14.6075 5.46291 14.7666 5.39714 14.9325 5.39725C15.0983 5.39737 15.2574 5.46337 15.3746 5.58073C15.4917 5.69808 15.5575 5.85719 15.5574 6.02304C15.5573 6.1889 15.4913 6.34791 15.3739 6.4651L14.0114 7.8276C14.9364 9.12385 14.9364 10.8776 14.0114 12.1726L15.3739 13.5351C15.4913 13.6523 15.5573 13.8113 15.5574 13.9772C15.5575 14.143 15.4917 14.3021 15.3746 14.4195C15.2574 14.5368 15.0983 14.6028 14.9325 14.6029C14.7666 14.6031 14.6075 14.5373 14.4902 14.4201L13.1277 13.0576C12.4931 13.5087 11.7338 13.751 10.9552 13.751C10.1766 13.751 9.4173 13.5087 8.78268 13.0576L7.42018 14.4201C7.36207 14.4782 7.29308 14.5243 7.21716 14.5558C7.14123 14.5872 7.05986 14.6034 6.97768 14.6034C6.8955 14.6034 6.81412 14.5872 6.7382 14.5558C6.66228 14.5243 6.59329 14.4782 6.53518 14.4201C6.47707 14.362 6.43097 14.293 6.39953 14.2171C6.36808 14.1412 6.35189 14.0598 6.35189 13.9776C6.35189 13.8954 6.36808 13.814 6.39953 13.7381C6.43097 13.6622 6.47707 13.5932 6.53518 13.5351L7.89768 12.1726C7.44662 11.538 7.20427 10.7787 7.20427 10.0001C7.20427 9.22151 7.44662 8.46222 7.89768 7.8276L6.53518 6.4651C6.47698 6.40704 6.4308 6.33807 6.39929 6.26214C6.36778 6.18621 6.35156 6.10481 6.35156 6.0226C6.35156 5.94039 6.36778 5.85899 6.39929 5.78306C6.4308 5.70713 6.47698 5.63816 6.53518 5.5801ZM9.18768 8.2326C8.9489 8.46322 8.75845 8.73908 8.62743 9.04409C8.4964 9.3491 8.42744 9.67715 8.42455 10.0091C8.42167 10.341 8.48492 10.6702 8.61063 10.9775C8.73633 11.2847 8.92196 11.5639 9.15669 11.7986C9.39142 12.0333 9.67055 12.219 9.97779 12.3447C10.285 12.4704 10.6142 12.5336 10.9462 12.5307C11.2781 12.5278 11.6062 12.4589 11.9112 12.3279C12.2162 12.1968 12.4921 12.0064 12.7227 11.7676C13.1781 11.2961 13.4301 10.6646 13.4244 10.0091C13.4187 9.35361 13.1557 8.72658 12.6922 8.26306C12.2287 7.79954 11.6017 7.53661 10.9462 7.53092C10.2907 7.52522 9.65919 7.77721 9.18768 8.2326Z" fill="#B99663"/>
</g>
<defs>
<clipPath id="clip0_340_287">
<rect width="20" height="20" fill="white" transform="translate(0.5)"/>
</clipPath>
</defs>
</svg>
