<svg width="20" height="20" viewBox="0 0 20 20" fill="none" xmlns="http://www.w3.org/2000/svg">
<path d="M6.25 15.625C6.24982 15.9687 6.15517 16.3057 5.97639 16.5993C5.79761 16.8929 5.54158 17.1316 5.23629 17.2895C4.93099 17.4474 4.58817 17.5183 4.24528 17.4945C3.9024 17.4707 3.57265 17.3532 3.29207 17.1547C3.01149 16.9562 2.79087 16.6843 2.65432 16.3689C2.51777 16.0535 2.47055 15.7066 2.51781 15.3662C2.56508 15.0257 2.70501 14.7048 2.92232 14.4385C3.13963 14.1723 3.42595 13.9708 3.75 13.8563V11.875C3.75 11.7092 3.81585 11.5503 3.93306 11.4331C4.05027 11.3158 4.20924 11.25 4.375 11.25C4.54076 11.25 4.69973 11.3158 4.81694 11.4331C4.93415 11.5503 5 11.7092 5 11.875V13.8563C5.36572 13.9856 5.68234 14.2251 5.90622 14.5419C6.13009 14.8587 6.2502 15.2371 6.25 15.625Z" fill="#B99663"/>
<path d="M1.25 3.125C1.25 2.2962 1.57924 1.50134 2.16529 0.915291C2.75134 0.32924 3.5462 0 4.375 0C5.2038 0 5.99866 0.32924 6.58471 0.915291C7.17076 1.50134 7.5 2.2962 7.5 3.125V12.5625C8.10292 13.1779 8.51075 13.9575 8.67234 14.8037C8.83394 15.6499 8.74212 16.525 8.40838 17.3192C8.07465 18.1134 7.51386 18.7914 6.79633 19.2682C6.07881 19.745 5.23649 19.9994 4.375 19.9994C3.51351 19.9994 2.67119 19.745 1.95367 19.2682C1.23615 18.7914 0.67536 18.1134 0.341624 17.3192C0.0078892 16.525 -0.0839372 15.6499 0.0776598 14.8037C0.239257 13.9575 0.647084 13.1779 1.25 12.5625V3.125ZM4.375 1.25C3.87772 1.25 3.40081 1.44754 3.04918 1.79917C2.69755 2.15081 2.5 2.62772 2.5 3.125V13.1088L2.29125 13.2963C1.81947 13.7182 1.48691 14.2734 1.33759 14.8884C1.18827 15.5035 1.22923 16.1494 1.45504 16.7406C1.68085 17.3319 2.08087 17.8406 2.60217 18.1996C3.12347 18.5585 3.74146 18.7507 4.37438 18.7507C5.00729 18.7507 5.62529 18.5585 6.14659 18.1996C6.66788 17.8406 7.0679 17.3319 7.29372 16.7406C7.51953 16.1494 7.56048 15.5035 7.41116 14.8884C7.26184 14.2734 6.92929 13.7182 6.4575 13.2963L6.25 13.1075V3.125C6.25 2.62772 6.05246 2.15081 5.70083 1.79917C5.3492 1.44754 4.87228 1.25 4.375 1.25ZM10.625 2.5C10.7908 2.5 10.9497 2.56585 11.0669 2.68306C11.1842 2.80027 11.25 2.95924 11.25 3.125V4.74125L12.0575 3.9325C12.1749 3.81514 12.334 3.74921 12.5 3.74921C12.666 3.74921 12.8251 3.81514 12.9425 3.9325C13.0599 4.04986 13.1258 4.20903 13.1258 4.375C13.1258 4.54097 13.0599 4.70014 12.9425 4.8175L11.25 6.50875V8.9175L13.3363 7.71375L13.955 5.40125C13.9763 5.32196 14.0131 5.24766 14.0631 5.18257C14.1132 5.11749 14.1756 5.0629 14.2467 5.02193C14.3179 4.98096 14.3964 4.9544 14.4778 4.94377C14.5593 4.93315 14.642 4.93866 14.7213 4.96C14.8005 4.98134 14.8748 5.01809 14.9399 5.06814C15.005 5.1182 15.0596 5.18059 15.1006 5.25174C15.1415 5.32289 15.1681 5.40142 15.1787 5.48284C15.1894 5.56425 15.1838 5.64696 15.1625 5.72625L14.8663 6.82875L16.2663 6.02125C16.4097 5.93968 16.5796 5.91816 16.7389 5.96141C16.8982 6.00465 17.0339 6.10914 17.1164 6.25207C17.1989 6.395 17.2216 6.56476 17.1794 6.72432C17.1372 6.88388 17.0336 7.02028 16.8913 7.10375L15.4913 7.91125L16.5963 8.2075C16.6755 8.22884 16.7498 8.26559 16.8149 8.31564C16.88 8.3657 16.9346 8.42809 16.9756 8.49924C17.0165 8.57039 17.0431 8.64892 17.0537 8.73034C17.0644 8.81175 17.0588 8.89446 17.0375 8.97375C17.0162 9.05304 16.9794 9.12734 16.9294 9.19243C16.8793 9.25751 16.8169 9.3121 16.7458 9.35307C16.6746 9.39404 16.5961 9.4206 16.5147 9.43123C16.4333 9.44185 16.3505 9.43634 16.2713 9.415L13.9613 8.79625L11.875 10L13.9613 11.2038L16.2725 10.585C16.3523 10.5623 16.4358 10.5556 16.5182 10.5655C16.6005 10.5753 16.6801 10.6015 16.7523 10.6424C16.8244 10.6834 16.8877 10.7383 16.9384 10.8039C16.9891 10.8695 17.0263 10.9446 17.0477 11.0248C17.0691 11.1049 17.0743 11.1885 17.0631 11.2707C17.0519 11.3529 17.0244 11.432 16.9822 11.5035C16.9401 11.575 16.8842 11.6373 16.8177 11.6869C16.7512 11.7366 16.6755 11.7724 16.595 11.7925L15.4913 12.0887L16.8913 12.8963C17.0336 12.9797 17.1372 13.1161 17.1794 13.2757C17.2216 13.4352 17.1989 13.605 17.1164 13.7479C17.0339 13.8909 16.8982 13.9953 16.7389 14.0386C16.5796 14.0818 16.4097 14.0603 16.2663 13.9787L14.8663 13.1712L15.1625 14.275C15.1852 14.3548 15.1919 14.4383 15.182 14.5207C15.1722 14.603 15.146 14.6826 15.1051 14.7548C15.0641 14.8269 15.0092 14.8902 14.9436 14.9409C14.878 14.9916 14.8029 15.0288 14.7227 15.0502C14.6426 15.0716 14.559 15.0768 14.4768 15.0656C14.3946 15.0544 14.3155 15.0269 14.244 14.9847C14.1725 14.9426 14.1102 14.8867 14.0606 14.8202C14.011 14.7537 13.9751 14.678 13.955 14.5975L13.3375 12.2875L11.25 11.0825V13.4913L12.9425 15.1825C13.0006 15.2406 13.0467 15.3096 13.0782 15.3855C13.1096 15.4614 13.1258 15.5428 13.1258 15.625C13.1258 15.7072 13.1096 15.7886 13.0782 15.8645C13.0467 15.9404 13.0006 16.0094 12.9425 16.0675C12.8844 16.1256 12.8154 16.1717 12.7395 16.2032C12.6636 16.2346 12.5822 16.2508 12.5 16.2508C12.4178 16.2508 12.3364 16.2346 12.2605 16.2032C12.1846 16.1717 12.1156 16.1256 12.0575 16.0675L11.25 15.2587V16.875C11.25 17.0408 11.1842 17.1997 11.0669 17.3169C10.9497 17.4342 10.7908 17.5 10.625 17.5C10.4592 17.5 10.3003 17.4342 10.1831 17.3169C10.0659 17.1997 10 17.0408 10 16.875V3.125C10 2.95924 10.0659 2.80027 10.1831 2.68306C10.3003 2.56585 10.4592 2.5 10.625 2.5Z" fill="#B99663"/>
</svg>
