<svg width="20" height="20" viewBox="0 0 20 20" fill="none" xmlns="http://www.w3.org/2000/svg">
<path d="M3.125 16.875C3.125 16.7092 3.19085 16.5503 3.30806 16.4331C3.42527 16.3158 3.58424 16.25 3.75 16.25H16.25C16.4158 16.25 16.5747 16.3158 16.6919 16.4331C16.8092 16.5503 16.875 16.7092 16.875 16.875C16.875 17.0408 16.8092 17.1997 16.6919 17.3169C16.5747 17.4342 16.4158 17.5 16.25 17.5H3.75C3.58424 17.5 3.42527 17.4342 3.30806 17.3169C3.19085 17.1997 3.125 17.0408 3.125 16.875ZM17.4888 3.75L17.5188 3.75125C17.7521 3.76835 17.9802 3.82898 18.1912 3.93C18.3428 4.00075 18.4731 4.11027 18.5687 4.2475C18.6525 4.3725 18.75 4.59375 18.75 5V12.4888L18.7487 12.5188C18.7316 12.7521 18.671 12.9802 18.57 13.1913C18.4993 13.3428 18.3897 13.4731 18.2525 13.5687C18.1275 13.6525 17.9062 13.75 17.5 13.75H2.51125L2.48125 13.7487C2.24789 13.7316 2.0198 13.671 1.80875 13.57C1.65716 13.4993 1.52693 13.3897 1.43125 13.2525C1.3475 13.1275 1.25 12.9062 1.25 12.5V5.01125L1.25125 4.98125C1.26835 4.74789 1.32898 4.5198 1.43 4.30875C1.50075 4.15716 1.61027 4.02693 1.7475 3.93125C1.8725 3.8475 2.09375 3.75 2.5 3.75H17.4888ZM17.5 2.5H2.5C0 2.5 0 5 0 5V12.5C0 15 2.5 15 2.5 15H17.5C20 15 20 12.5 20 12.5V5C20 2.5 17.5 2.5 17.5 2.5Z" fill="#B99663"/>
</svg>
