<svg width="20" height="20" viewBox="0 0 20 20" fill="none" xmlns="http://www.w3.org/2000/svg">
<path d="M19.23 7.64377C19.2929 7.58273 19.3418 7.50878 19.3733 7.42704C19.4048 7.34529 19.4183 7.25767 19.4127 7.17023C19.4071 7.08279 19.3826 6.9976 19.341 6.92052C19.2993 6.84345 19.2414 6.77632 19.1713 6.72377C16.5065 4.78589 13.295 3.74457 10 3.75002C6.57378 3.75002 3.40378 4.85252 0.828784 6.72377C0.75859 6.77623 0.700602 6.84328 0.658816 6.92031C0.617029 6.99733 0.592437 7.0825 0.586734 7.16994C0.581032 7.25739 0.594353 7.34503 0.625782 7.42683C0.65721 7.50863 0.705998 7.58264 0.768784 7.64377C0.878281 7.75092 1.02211 7.81595 1.17488 7.82739C1.32765 7.83882 1.47956 7.79593 1.60378 7.70627C4.04779 5.94266 6.98616 4.99558 10 5.00002C13.1338 5.00002 16.0338 6.00252 18.395 7.70502C18.6513 7.89002 19.0075 7.86752 19.23 7.64377Z" fill="#B99663"/>
<path d="M16.5364 10.3388C16.6008 10.2766 16.6506 10.2009 16.6821 10.1171C16.7136 10.0333 16.726 9.9436 16.7184 9.85442C16.7109 9.76523 16.6836 9.67885 16.6385 9.60155C16.5934 9.52424 16.5316 9.45796 16.4577 9.40751C14.5355 8.15933 12.292 7.49663 10.0002 7.50001C7.61893 7.50001 5.40018 8.20001 3.54268 9.40751C3.46837 9.45766 3.40624 9.52383 3.36086 9.60114C3.31548 9.67846 3.28801 9.76496 3.28045 9.85429C3.2729 9.94362 3.28546 10.0335 3.31721 10.1173C3.34896 10.2012 3.3991 10.2768 3.46393 10.3388C3.57043 10.4427 3.70911 10.5074 3.8572 10.5221C4.00529 10.5369 4.154 10.5009 4.27893 10.42C5.98646 9.32634 7.97243 8.74664 10.0002 8.75001C12.0275 8.74688 14.013 9.32657 15.7202 10.42C15.9777 10.585 16.3202 10.555 16.5364 10.3388ZM13.8077 13.0675C14.0902 12.785 14.0389 12.3113 13.6827 12.13C12.5416 11.5508 11.2799 11.2493 10.0002 11.25C8.67518 11.25 7.42268 11.5675 6.31768 12.13C5.96143 12.3113 5.91018 12.785 6.19268 13.0675L6.21143 13.0863C6.41143 13.2863 6.72018 13.3238 6.97518 13.1988C7.91704 12.7382 8.95176 12.4992 10.0002 12.5C11.0852 12.5 12.1127 12.7513 13.0252 13.2C13.2789 13.325 13.5877 13.2875 13.7877 13.0863L13.8077 13.0675ZM11.3252 15.55C11.5702 15.305 11.5727 14.9 11.2752 14.725C10.8893 14.496 10.4489 14.3751 10.0002 14.375C9.55147 14.3751 9.11107 14.496 8.72518 14.725C8.42768 14.9 8.43018 15.305 8.67518 15.55L9.55768 16.4325C9.67488 16.5497 9.83383 16.6155 9.99955 16.6155C10.1653 16.6155 10.3242 16.5497 10.4414 16.4325L11.3252 15.55Z" fill="#B99663"/>
</svg>
