<svg width="20" height="20" viewBox="0 0 20 20" fill="none" xmlns="http://www.w3.org/2000/svg">
<path d="M5 20C5 20 3.75 20 3.75 18.75C3.75 17.5 5 13.75 10 13.75C15 13.75 16.25 17.5 16.25 18.75C16.25 20 15 20 15 20H5ZM10 12.5625C10.8288 12.5625 11.6237 12.2333 12.2097 11.6472C12.7958 11.0612 13.125 10.2663 13.125 9.4375C13.125 8.6087 12.7958 7.81384 12.2097 7.22779C11.6237 6.64174 10.8288 6.3125 10 6.3125C9.1712 6.3125 8.37634 6.64174 7.79029 7.22779C7.20424 7.81384 6.875 8.6087 6.875 9.4375C6.875 10.2663 7.20424 11.0612 7.79029 11.6472C8.37634 12.2333 9.1712 12.5625 10 12.5625Z" fill="#B99663"/>
<path d="M2.5 1.25C1.83696 1.25 1.20107 1.51339 0.732233 1.98223C0.263392 2.45107 0 3.08696 0 3.75L0 15.625C0 16.1223 0.197544 16.5992 0.549175 16.9508C0.900805 17.3025 1.37772 17.5 1.875 17.5H2.69125C2.95357 16.5818 3.40774 15.7297 4.02375 15H1.25V3.75C1.25 3.41848 1.3817 3.10054 1.61612 2.86612C1.85054 2.6317 2.16848 2.5 2.5 2.5H17.5C17.8315 2.5 18.1495 2.6317 18.3839 2.86612C18.6183 3.10054 18.75 3.41848 18.75 3.75V15H15.9762C16.6688 15.8175 17.0888 16.7163 17.3088 17.5H18.125C18.6223 17.5 19.0992 17.3025 19.4508 16.9508C19.8025 16.5992 20 16.1223 20 15.625V3.75C20 3.08696 19.7366 2.45107 19.2678 1.98223C18.7989 1.51339 18.163 1.25 17.5 1.25H2.5Z" fill="#B99663"/>
</svg>
