<svg width="20" height="20" viewBox="0 0 20 20" fill="none" xmlns="http://www.w3.org/2000/svg">
<path d="M17.5 9.375C17.5 9.62123 17.4515 9.86505 17.3573 10.0925C17.263 10.32 17.1249 10.5267 16.9508 10.7008C16.7767 10.8749 16.57 11.013 16.3425 11.1073C16.115 11.2015 15.8712 11.25 15.625 11.25C15.3788 11.25 15.135 11.2015 14.9075 11.1073C14.68 11.013 14.4733 10.8749 14.2992 10.7008C14.1251 10.5267 13.987 10.32 13.8927 10.0925C13.7985 9.86505 13.75 9.62123 13.75 9.375C13.75 8.87772 13.9475 8.40081 14.2992 8.04917C14.6508 7.69754 15.1277 7.5 15.625 7.5C16.1223 7.5 16.5992 7.69754 16.9508 8.04917C17.3025 8.40081 17.5 8.87772 17.5 9.375ZM3.125 7.5C2.95924 7.5 2.80027 7.56585 2.68306 7.68306C2.56585 7.80027 2.5 7.95924 2.5 8.125C2.5 8.29076 2.56585 8.44973 2.68306 8.56694C2.80027 8.68415 2.95924 8.75 3.125 8.75H8.125C8.29076 8.75 8.44973 8.68415 8.56694 8.56694C8.68415 8.44973 8.75 8.29076 8.75 8.125C8.75 7.95924 8.68415 7.80027 8.56694 7.68306C8.44973 7.56585 8.29076 7.5 8.125 7.5H3.125ZM3.125 10C2.95924 10 2.80027 10.0658 2.68306 10.1831C2.56585 10.3003 2.5 10.4592 2.5 10.625C2.5 10.7908 2.56585 10.9497 2.68306 11.0669C2.80027 11.1842 2.95924 11.25 3.125 11.25H8.125C8.29076 11.25 8.44973 11.1842 8.56694 11.0669C8.68415 10.9497 8.75 10.7908 8.75 10.625C8.75 10.4592 8.68415 10.3003 8.56694 10.1831C8.44973 10.0658 8.29076 10 8.125 10H3.125Z" fill="#B99663"/>
<path d="M0 7.5C0 6.83696 0.263392 6.20107 0.732233 5.73223C1.20107 5.26339 1.83696 5 2.5 5H17.5C18.163 5 18.7989 5.26339 19.2678 5.73223C19.7366 6.20107 20 6.83696 20 7.5V11.25C20 11.913 19.7366 12.5489 19.2678 13.0178C18.7989 13.4866 18.163 13.75 17.5 13.75C17.5 14.0815 17.3683 14.3995 17.1339 14.6339C16.8995 14.8683 16.5815 15 16.25 15H15C14.6685 15 14.3505 14.8683 14.1161 14.6339C13.8817 14.3995 13.75 14.0815 13.75 13.75H6.25C6.25 14.0815 6.1183 14.3995 5.88388 14.6339C5.64946 14.8683 5.33152 15 5 15H3.75C3.41848 15 3.10054 14.8683 2.86612 14.6339C2.6317 14.3995 2.5 14.0815 2.5 13.75C1.83696 13.75 1.20107 13.4866 0.732233 13.0178C0.263392 12.5489 0 11.913 0 11.25V7.5ZM2.5 6.25C2.16848 6.25 1.85054 6.3817 1.61612 6.61612C1.3817 6.85054 1.25 7.16848 1.25 7.5V11.25C1.25 11.5815 1.3817 11.8995 1.61612 12.1339C1.85054 12.3683 2.16848 12.5 2.5 12.5H17.5C17.8315 12.5 18.1495 12.3683 18.3839 12.1339C18.6183 11.8995 18.75 11.5815 18.75 11.25V7.5C18.75 7.16848 18.6183 6.85054 18.3839 6.61612C18.1495 6.3817 17.8315 6.25 17.5 6.25H2.5Z" fill="#B99663"/>
</svg>
