<svg width="20" height="20" viewBox="0 0 20 20" fill="none" xmlns="http://www.w3.org/2000/svg">
<path d="M15 1.25C15.3315 1.25 15.6495 1.3817 15.8839 1.61612C16.1183 1.85054 16.25 2.16848 16.25 2.5V17.5C16.25 17.8315 16.1183 18.1495 15.8839 18.3839C15.6495 18.6183 15.3315 18.75 15 18.75H5C4.66848 18.75 4.35054 18.6183 4.11612 18.3839C3.8817 18.1495 3.75 17.8315 3.75 17.5V2.5C3.75 2.16848 3.8817 1.85054 4.11612 1.61612C4.35054 1.3817 4.66848 1.25 5 1.25H15ZM5 0C4.33696 0 3.70107 0.263392 3.23223 0.732233C2.76339 1.20107 2.5 1.83696 2.5 2.5V17.5C2.5 18.163 2.76339 18.7989 3.23223 19.2678C3.70107 19.7366 4.33696 20 5 20H15C15.663 20 16.2989 19.7366 16.7678 19.2678C17.2366 18.7989 17.5 18.163 17.5 17.5V2.5C17.5 1.83696 17.2366 1.20107 16.7678 0.732233C16.2989 0.263392 15.663 0 15 0L5 0Z" fill="#B99663"/>
<path d="M10 5.9375C9.75136 5.9375 9.5129 5.83873 9.33709 5.66291C9.16127 5.4871 9.0625 5.24864 9.0625 5C9.0625 4.75136 9.16127 4.5129 9.33709 4.33709C9.5129 4.16127 9.75136 4.0625 10 4.0625C10.2486 4.0625 10.4871 4.16127 10.6629 4.33709C10.8387 4.5129 10.9375 4.75136 10.9375 5C10.9375 5.24864 10.8387 5.4871 10.6629 5.66291C10.4871 5.83873 10.2486 5.9375 10 5.9375ZM10 7.5C10.663 7.5 11.2989 7.23661 11.7678 6.76777C12.2366 6.29893 12.5 5.66304 12.5 5C12.5 4.33696 12.2366 3.70107 11.7678 3.23223C11.2989 2.76339 10.663 2.5 10 2.5C9.33696 2.5 8.70107 2.76339 8.23223 3.23223C7.76339 3.70107 7.5 4.33696 7.5 5C7.5 5.66304 7.76339 6.29893 8.23223 6.76777C8.70107 7.23661 9.33696 7.5 10 7.5ZM10 11.25C9.50272 11.25 9.02581 11.4475 8.67417 11.7992C8.32254 12.1508 8.125 12.6277 8.125 13.125C8.125 13.6223 8.32254 14.0992 8.67417 14.4508C9.02581 14.8025 9.50272 15 10 15C10.4973 15 10.9742 14.8025 11.3258 14.4508C11.6775 14.0992 11.875 13.6223 11.875 13.125C11.875 12.6277 11.6775 12.1508 11.3258 11.7992C10.9742 11.4475 10.4973 11.25 10 11.25ZM5.625 13.125C5.625 11.9647 6.08594 10.8519 6.90641 10.0314C7.72688 9.21094 8.83968 8.75 10 8.75C11.1603 8.75 12.2731 9.21094 13.0936 10.0314C13.9141 10.8519 14.375 11.9647 14.375 13.125C14.375 14.2853 13.9141 15.3981 13.0936 16.2186C12.2731 17.0391 11.1603 17.5 10 17.5C8.83968 17.5 7.72688 17.0391 6.90641 16.2186C6.08594 15.3981 5.625 14.2853 5.625 13.125Z" fill="#B99663"/>
</svg>
