<svg width="13" height="13" viewBox="0 0 13 13" fill="none" xmlns="http://www.w3.org/2000/svg">
<g clip-path="url(#clip0_388_2877)">
<path d="M6.83301 3.125C6.83301 3.02554 6.7935 2.93016 6.72317 2.85984C6.65285 2.78951 6.55746 2.75 6.45801 2.75C6.35855 2.75 6.26317 2.78951 6.19284 2.85984C6.12252 2.93016 6.08301 3.02554 6.08301 3.125V7.25C6.08303 7.3161 6.10052 7.38102 6.13371 7.43818C6.1669 7.49534 6.21461 7.54272 6.27201 7.5755L8.89701 9.0755C8.98315 9.12206 9.08409 9.13307 9.17825 9.10619C9.2724 9.07931 9.35231 9.01667 9.40089 8.93165C9.44948 8.84663 9.46288 8.74598 9.43823 8.65122C9.41359 8.55645 9.35285 8.47508 9.26901 8.4245L6.83301 7.0325V3.125Z" fill="#B99663"/>
<path d="M6.83301 12.5C8.42431 12.5 9.95043 11.8679 11.0756 10.7426C12.2009 9.61742 12.833 8.0913 12.833 6.5C12.833 4.9087 12.2009 3.38258 11.0756 2.25736C9.95043 1.13214 8.42431 0.5 6.83301 0.5C5.24171 0.5 3.71559 1.13214 2.59037 2.25736C1.46515 3.38258 0.833008 4.9087 0.833008 6.5C0.833008 8.0913 1.46515 9.61742 2.59037 10.7426C3.71559 11.8679 5.24171 12.5 6.83301 12.5ZM12.083 6.5C12.083 7.89239 11.5299 9.22774 10.5453 10.2123C9.56075 11.1969 8.22539 11.75 6.83301 11.75C5.44062 11.75 4.10526 11.1969 3.1207 10.2123C2.13613 9.22774 1.58301 7.89239 1.58301 6.5C1.58301 5.10761 2.13613 3.77226 3.1207 2.78769C4.10526 1.80312 5.44062 1.25 6.83301 1.25C8.22539 1.25 9.56075 1.80312 10.5453 2.78769C11.5299 3.77226 12.083 5.10761 12.083 6.5Z" fill="#B99663"/>
</g>
<defs>
<clipPath id="clip0_388_2877">
<rect width="12" height="12" fill="white" transform="translate(0.833008 0.5)"/>
</clipPath>
</defs>
</svg>
